<?xml version="1.0" encoding="UTF-8"?>
<svg enable-background="new 0 0 57.2 13" version="1.1" viewBox="0 0 57.2 13" xml:space="preserve" xmlns="http://www.w3.org/2000/svg">
<style type="text/css">
	.st0{fill:#F7F8F8;}
</style>
	<path class="st0" d="m3.2 10.3c0 0.5-0.1 0.9-0.2 1.2s-0.3 0.6-0.5 0.9c-0.2 0.2-0.5 0.4-0.8 0.5s-0.7 0.1-1.1 0l-0.6-1.6c0.2 0.1 0.4 0.1 0.5 0.1 0.2 0 0.3 0 0.5-0.1 0.1-0.1 0.3-0.2 0.3-0.3s0.1-0.4 0.1-0.7v-7.3h1.8v7.3zm0.1-8.5h-1.8v-1.8h1.8v1.8z"/>
	<path class="st0" d="m10.5 10h-1.8v-0.4c-0.3 0.2-0.6 0.4-1 0.4-0.3 0.1-0.7 0.1-1 0.1s-0.6-0.1-0.9-0.2c-0.3 0-0.5-0.2-0.7-0.3-0.2-0.2-0.4-0.5-0.5-0.7s-0.1-0.5-0.1-0.9 0.1-0.7 0.3-1 0.4-0.5 0.7-0.7 0.6-0.3 1-0.4 0.8-0.1 1.3-0.1h1c0-0.4-0.1-0.7-0.4-1s-0.7-0.4-1.2-0.4c-0.2 0-0.5 0-0.7 0.1-0.3 0.1-0.6 0.2-0.8 0.5l-1-1c0.3-0.4 0.8-0.7 1.2-0.9 0.5-0.2 1-0.3 1.5-0.3s0.9 0.1 1.3 0.2c0.4 0.2 0.7 0.3 0.9 0.6 0.3 0.3 0.5 0.6 0.6 1s0.2 0.9 0.2 1.4v4zm-1.8-1.8v-1.3h-0.8-0.7c-0.2 0.1-0.3 0.2-0.5 0.3-0.2 0-0.3 0.1-0.4 0.3-0.1 0.1-0.1 0.2-0.1 0.4s0.1 0.4 0.3 0.6 0.4 0.2 0.7 0.2 0.5 0 0.8-0.1 0.5-0.2 0.7-0.4z"/>
	<path class="st0" d="M17.6,3l-3.4,5.4h3.3V10h-6.1l3.4-5.4h-3V3H17.6z"/>
	<path class="st0" d="m25.6 6.5v0.3 0.4h-5.6l0.3 0.6c0.1 0.2 0.3 0.3 0.4 0.5l0.6 0.3c0.2 0.1 0.4 0.1 0.7 0.1s0.6-0.1 0.9-0.2 0.6-0.3 0.8-0.4l1.1 1.1c-0.5 0.4-1 0.6-1.4 0.8s-0.9 0.2-1.5 0.2c-0.5 0-1-0.1-1.5-0.3s-0.8-0.5-1.2-0.8c-0.3-0.3-0.6-0.7-0.8-1.2-0.2-0.4-0.3-0.9-0.3-1.4s0.1-1 0.3-1.4 0.5-0.8 0.8-1.2 0.7-0.6 1.2-0.8c0.4-0.2 0.9-0.3 1.4-0.3s1 0.1 1.4 0.3 0.8 0.4 1.2 0.8c0.3 0.3 0.6 0.7 0.8 1.1 0.3 0.5 0.4 0.9 0.4 1.5zm-1.8-0.7c-0.1-0.4-0.4-0.8-0.7-1.1s-0.7-0.4-1.2-0.4c-0.4 0-0.8 0.1-1.2 0.4-0.3 0.3-0.5 0.7-0.7 1.1h3.8z"/>
	<path class="st0" d="m33.1 3l-2.6 7h-1.7l-2.6-7h1.9l1.6 4.7 1.5-4.7h1.9z"/>
	<path class="st0" d="m41 6.5v0.3 0.4h-5.5l0.3 0.6c0 0.2 0.2 0.3 0.3 0.4l0.6 0.3c0.2 0.1 0.4 0.1 0.7 0.1s0.6-0.1 0.9-0.2 0.6-0.3 0.8-0.4l1.1 1.1c-0.5 0.4-1 0.6-1.4 0.8s-0.9 0.2-1.5 0.2c-0.5 0-1-0.1-1.5-0.3s-0.8-0.5-1.2-0.8c-0.3-0.3-0.6-0.7-0.8-1.2-0.2-0.4-0.3-0.9-0.3-1.4s0.1-1 0.3-1.4 0.5-0.8 0.8-1.2 0.7-0.6 1.2-0.8c0.4-0.2 0.9-0.3 1.4-0.3s1 0.1 1.4 0.3 0.8 0.4 1.2 0.8c0.3 0.3 0.6 0.7 0.8 1.1 0.3 0.6 0.4 1 0.4 1.6zm-1.8-0.7c-0.1-0.4-0.4-0.8-0.7-1.1s-0.7-0.4-1.2-0.4c-0.4 0-0.8 0.1-1.2 0.4-0.3 0.3-0.6 0.6-0.7 1.1h3.8z"/>
	<path class="st0" d="m48.6 10h-1.8v-0.4c-0.2 0.2-0.5 0.3-0.7 0.4-0.3 0.1-0.5 0.1-0.8 0.1-0.5 0-0.9-0.1-1.3-0.3s-0.8-0.5-1.1-0.8-0.5-0.7-0.7-1.2c-0.2-0.4-0.3-0.8-0.3-1.3s0.1-1 0.3-1.4 0.4-0.8 0.7-1.2c0.3-0.3 0.7-0.6 1.1-0.8s0.8-0.3 1.2-0.3c0.3 0 0.6 0 0.9 0.1s0.5 0.2 0.7 0.3v-3.2h1.8v10zm-1.8-1.9v-3.3c-0.1-0.1-0.2-0.1-0.3-0.2s-0.2-0.1-0.3-0.1-0.2-0.1-0.3-0.1h-0.3c-0.3 0-0.6 0.1-0.8 0.1-0.2 0.1-0.4 0.2-0.6 0.4s-0.3 0.4-0.4 0.7-0.1 0.6-0.1 0.9 0 0.6 0.1 0.9c0 0.2 0.2 0.4 0.3 0.6s0.4 0.3 0.6 0.4 0.5 0.2 0.8 0.2c0.5 0 0.9-0.2 1.3-0.5z"/>
	<path class="st0" d="m57.2 6.5c0 0.5-0.1 1-0.3 1.4s-0.5 0.8-0.8 1.2c-0.3 0.3-0.7 0.6-1.2 0.8s-0.9 0.3-1.4 0.3-1-0.1-1.4-0.3-0.8-0.4-1.2-0.8c-0.3-0.3-0.6-0.7-0.8-1.2-0.2-0.4-0.3-0.9-0.3-1.4s0.1-1 0.3-1.4 0.5-0.8 0.8-1.2c0.3-0.3 0.7-0.6 1.2-0.8s0.9-0.3 1.4-0.3 1 0.1 1.4 0.3 0.8 0.4 1.2 0.8c0.3 0.3 0.6 0.7 0.8 1.2 0.2 0.4 0.3 0.9 0.3 1.4zm-1.8 0c0-0.3-0.1-0.6-0.2-0.8 0-0.3-0.2-0.5-0.4-0.7s-0.4-0.3-0.6-0.5-0.5-0.2-0.8-0.2-0.5 0.1-0.8 0.2-0.4 0.3-0.5 0.5c-0.2 0.2-0.3 0.4-0.4 0.7s-0.2 0.5-0.2 0.8 0.1 0.6 0.2 0.8c0.1 0.3 0.2 0.5 0.4 0.7s0.4 0.3 0.6 0.4 0.5 0.2 0.8 0.2 0.5-0.1 0.8-0.2 0.4-0.3 0.6-0.4c0.2-0.2 0.3-0.4 0.4-0.7 0.1-0.2 0.1-0.5 0.1-0.8z"/>
</svg>
