<?xml version="1.0" encoding="utf-8"?>
<!-- Generator: Adobe Illustrator 23.0.3, SVG Export Plug-In . SVG Version: 6.00 Build 0)  -->
<svg version="1.1" id="Layer_1" xmlns="http://www.w3.org/2000/svg" xmlns:xlink="http://www.w3.org/1999/xlink" x="0px" y="0px"
	 viewBox="0 0 320 371" style="enable-background:new 0 0 320 371;" xml:space="preserve">
<style type="text/css">
	.st0{fill:#F7F8F8;}
</style>
<path class="st0" d="M320,11.6c-14.9,12.3-26,27.5-37.5,42.3c-5.6,7.2-11.2,14.3-17.1,21.2c-6.7,7.9-14.1,15-22.7,21
	c-19.1,13.5-40.4,17.2-63.2,13.3c-6.5-1.1-13-2.8-19.3-4.5c-4.4-1.2-8.6-2.8-13.6-4.5c36.1-26.4,75.5-45.8,114.3-66.6
	c-0.5,0-1-0.1-1.4,0c-47.4,12.6-92.3,30.7-133.1,58.3c-23.7,16.1-44.7,35-61,58.7c-13.7,19.9-22.7,41.6-25.7,65.6
	c-3.6,29.5,4.5,55.6,23.3,78.5c14.3,17.3,32.4,27.8,54.7,31.1c42.7,6.5,84.4-21.8,94.6-63.9c11.7-48.1-19-96-67.7-104.4
	c-29.4-5.1-54.7,4.3-75.8,25.2c-0.7,0.7-1.1,1.7-1.7,2.6c-0.3-0.3-0.7-0.5-1-0.8c0.3-0.8,0.7-1.6,1.1-2.4
	c14.4-27.7,34.5-50.6,60-68.5c1.6-1.1,3.8-1.8,5.7-1.8c20.3,0,39.3,5.6,57,15.2c37.9,20.6,60.9,52.5,67.6,95.1
	c10.9,69-35.8,134.1-104.8,146.6C83,381.6,15.6,335.7,2.5,266.3c-6.2-33-0.5-64.4,14.1-94.2c15.7-32.2,39.3-57.4,69-77.1
	c1.9-1.2,2.6-2.5,2.7-4.7c0.9-29.8,15.7-51.2,40.8-66.1c16.2-9.7,34.1-15.2,52.6-18.8c26.2-5.3,52.8-6.3,79.4-4.5
	c18.7,1.2,37.3,3.6,55.2,9.5C317.4,10.7,318.4,11.1,320,11.6z"/>
</svg>
