<?xml version="1.0" encoding="utf-8"?>
<!-- Generator: Adobe Illustrator 23.0.3, SVG Export Plug-In . SVG Version: 6.00 Build 0)  -->
<svg version="1.1" xmlns="http://www.w3.org/2000/svg" xmlns:xlink="http://www.w3.org/1999/xlink" x="0px" y="0px"
	 viewBox="0 0 96.2 45.5" style="enable-background:new 0 0 96.2 45.5;" xml:space="preserve">
<style type="text/css">
	.st0{display:none;}
	.st1{display:inline;fill:#262626;}
	.st2{fill:#F7F8F8;}
</style>
<g id="Layer_2" class="st0">
	<rect x="-29.5" y="-50.5" class="st1" width="144" height="144"/>
</g>
<g id="Layer_1">
	<g>
		<circle class="st2" cx="38.6" cy="17.7" r="7.3"/>
		<circle class="st2" cx="52.3" cy="11.3" r="5.3"/>
		<circle class="st2" cx="61.3" cy="9.9" r="2"/>
		<circle class="st2" cx="51.9" cy="23.9" r="5.4"/>
		<circle class="st2" cx="43.1" cy="4.9" r="3.9"/>
		<circle class="st2" cx="50.8" cy="2.1" r="2.1"/>
		<circle class="st2" cx="61.1" cy="17.7" r="3.5"/>
	</g>
	<g>
		<path class="st2" d="M4.3,34.4c1,0,3.2,0.4,3.2,1.7v1H6.4v-0.7c0-0.7-1.3-1-2.1-1c-1.8,0-3.1,1.3-3.1,3.3c0,2,1.4,3.4,3.2,3.4
			c0.6,0,2.1-0.2,2.1-1v-0.7h1.1v1c0,1.2-2.1,1.7-3.3,1.7c-2.5,0-4.4-2-4.4-4.4C0,36.3,1.9,34.4,4.3,34.4z"/>
		<path class="st2" d="M12.1,36.8c1.8,0,3.3,1.3,3.3,3.2c0,1.8-1.5,3.2-3.3,3.2S8.8,41.8,8.8,40C8.8,38.1,10.3,36.8,12.1,36.8z
			 M12.1,42.2c1.1,0,2.1-0.9,2.1-2.2c0-1.3-0.9-2.2-2.1-2.2c-1.2,0-2.1,0.9-2.1,2.2C10,41.2,10.9,42.2,12.1,42.2z"/>
		<path class="st2" d="M16.9,35.4h-1v-0.9H18v6.7c0,0.5,0.1,0.9,0.6,0.9c0.2,0,0.3,0,0.3,0l0,1c0,0-0.2,0-0.5,0
			c-0.9,0-1.6-0.3-1.6-1.8V35.4z"/>
		<path class="st2" d="M20.3,35.4h-1v-0.9h2.2v6.7c0,0.5,0.1,0.9,0.6,0.9c0.2,0,0.3,0,0.3,0l0,1c0,0-0.2,0-0.5,0
			c-0.9,0-1.6-0.3-1.6-1.8V35.4z"/>
		<path class="st2" d="M26.3,36.8c1.7,0,2.6,1.3,2.6,2.8c0,0.2,0,0.4,0,0.4h-4.4c0.1,1.3,1,2.1,2.1,2.1c1.1,0,1.8-0.7,1.8-0.7
			l0.5,0.9c0,0-0.9,0.8-2.4,0.8c-1.9,0-3.2-1.4-3.2-3.2C23.2,38.1,24.6,36.8,26.3,36.8z M27.7,39.3c0-1.1-0.7-1.6-1.5-1.6
			c-0.9,0-1.6,0.6-1.8,1.6H27.7z"/>
		<path class="st2" d="M32.5,44.6c1.1,0,1.9-0.5,1.9-1.7v-0.5c0-0.2,0-0.4,0-0.4h0c-0.4,0.6-0.9,1-1.8,1c-1.7,0-2.7-1.4-2.7-3.1
			c0-1.7,1-3,2.7-3c0.8,0,1.6,0.3,2,1h0c0,0,0-0.1,0-0.2c0-0.4,0.2-0.6,0.7-0.6h1.3v0.9h-0.7c-0.2,0-0.3,0.1-0.3,0.2v4.7
			c0,2-1.5,2.8-3.1,2.8c-0.7,0-1.5-0.2-2.1-0.5l0.4-0.9C30.9,44.1,31.6,44.6,32.5,44.6z M34.5,39.8c0-1.6-0.8-2-1.7-2
			c-1,0-1.6,0.8-1.6,2c0,1.3,0.7,2.1,1.8,2.1C33.7,41.9,34.5,41.4,34.5,39.8z"/>
		<path class="st2" d="M40.4,36.8c1.7,0,2.6,1.3,2.6,2.8c0,0.2,0,0.4,0,0.4h-4.4c0.1,1.3,1,2.1,2.1,2.1c1.1,0,1.8-0.7,1.8-0.7
			l0.5,0.9c0,0-0.9,0.8-2.4,0.8c-1.9,0-3.2-1.4-3.2-3.2C37.4,38.1,38.7,36.8,40.4,36.8z M41.9,39.3c0-1.1-0.7-1.6-1.5-1.6
			c-0.9,0-1.6,0.6-1.8,1.6H41.9z"/>
		<path class="st2" d="M47.2,42.1h1.1v-6.6h-1.1v-0.9h6.1v2h-1v-1h-2.8v2.7h3v1h-3V42h3v-1h1v2h-6.3V42.1z"/>
		<path class="st2" d="M54.6,42.1h0.9l1.5-2.2l-1.3-2h-1v-0.9h1.7l1.1,1.8c0.1,0.2,0.2,0.4,0.2,0.4h0c0,0,0.1-0.2,0.2-0.4l1.1-1.8
			h1.6v0.9h-0.9l-1.4,2l1.5,2.2h0.8V43h-1.5l-1.2-2c-0.1-0.2-0.2-0.4-0.2-0.4h0c0,0-0.1,0.2-0.2,0.4l-1.2,2h-1.6V42.1z"/>
		<path class="st2" d="M62.4,44.5v-6.4c0-0.2-0.1-0.3-0.3-0.3h-0.7v-0.9h1.3c0.5,0,0.7,0.2,0.7,0.6v0c0,0.2,0,0.3,0,0.3h0
			c0,0,0.5-1.1,2-1.1c1.6,0,2.7,1.3,2.7,3.2c0,1.9-1.2,3.2-2.7,3.2c-1.3,0-1.9-1-1.9-1h0c0,0,0,0.2,0,0.5v1.9h1v0.9h-3.1v-0.9H62.4z
			 M65.2,42.2c1,0,1.8-0.8,1.8-2.2c0-1.3-0.7-2.2-1.7-2.2c-0.9,0-1.7,0.6-1.7,2.2C63.5,41.1,64.1,42.2,65.2,42.2z"/>
		<path class="st2" d="M69.7,35.4h-1v-0.9h2.2v6.7c0,0.5,0.1,0.9,0.6,0.9c0.2,0,0.3,0,0.3,0l0,1c0,0-0.2,0-0.5,0
			c-0.9,0-1.6-0.3-1.6-1.8V35.4z"/>
		<path class="st2" d="M75.9,36.8c1.8,0,3.3,1.3,3.3,3.2c0,1.8-1.5,3.2-3.3,3.2s-3.3-1.3-3.3-3.2C72.6,38.1,74.1,36.8,75.9,36.8z
			 M75.9,42.2c1.1,0,2.1-0.9,2.1-2.2c0-1.3-0.9-2.2-2.1-2.2c-1.2,0-2.1,0.9-2.1,2.2C73.8,41.2,74.7,42.2,75.9,42.2z"/>
		<path class="st2" d="M80.2,42.1h0.9v-4c0-0.2-0.1-0.3-0.3-0.3h-0.8v-0.9h1.4c0.5,0,0.8,0.2,0.8,0.7V38c0,0.2,0,0.4,0,0.4h0
			c0.3-0.9,1-1.6,1.9-1.6c0.2,0,0.3,0,0.3,0v1.2c0,0-0.1,0-0.3,0c-1.3,0-1.8,1.3-1.8,2.5v1.6h0.9V43h-3V42.1z"/>
		<path class="st2" d="M88.2,36.8c1.7,0,2.6,1.3,2.6,2.8c0,0.2,0,0.4,0,0.4h-4.4c0.1,1.3,1,2.1,2.1,2.1c1.1,0,1.8-0.7,1.8-0.7
			l0.5,0.9c0,0-0.9,0.8-2.4,0.8c-1.9,0-3.2-1.4-3.2-3.2C85.2,38.1,86.5,36.8,88.2,36.8z M89.6,39.3c0-1.1-0.7-1.6-1.5-1.6
			c-0.9,0-1.6,0.6-1.8,1.6H89.6z"/>
		<path class="st2" d="M91.9,42.1h0.9v-4c0-0.2-0.1-0.3-0.3-0.3h-0.8v-0.9h1.4c0.5,0,0.8,0.2,0.8,0.7V38c0,0.2,0,0.4,0,0.4h0
			c0.3-0.9,1-1.6,1.9-1.6c0.2,0,0.3,0,0.3,0v1.2c0,0-0.1,0-0.3,0c-1.3,0-1.8,1.3-1.8,2.5v1.6h0.9V43h-3V42.1z"/>
	</g>
</g>
</svg>
