<?xml version="1.0" encoding="utf-8"?>
<!-- Generator: Adobe Illustrator 23.0.3, SVG Export Plug-In . SVG Version: 6.00 Build 0)  -->
<svg version="1.1" id="Layer_2" xmlns="http://www.w3.org/2000/svg" xmlns:xlink="http://www.w3.org/1999/xlink" x="0px" y="0px"
	 viewBox="0 0 127 76.6" style="enable-background:new 0 0 127 76.6;" xml:space="preserve">
<style type="text/css">
	.st0{fill:#F7F8F8;}
</style>
<rect x="6.3" y="22" class="st0" width="2.3" height="48.3"/>
<rect x="1.5" y="27.5" class="st0" width="125.5" height="2.3"/>
<path class="st0" d="M64.9,66.2c-19.5,0-36.7-8.4-43.8-14.6C13.3,44.9,6.7,29.8,6.4,29.1l-1-2.2l93.9,28.3c6.9-4,11.4-8.8,15.2-13.3
	c7.5-8.9,6-12.6,6-12.7l2-1c0.2,0.5,2.1,5.1-6.3,15.1c-7.5,8.9-17.6,18.7-42.1,22.2C71,66,67.9,66.2,64.9,66.2z M9.5,30.5
	C11.7,35,16.9,45,22.6,49.9c6.9,5.9,23.4,14,42.2,14c3,0,6-0.2,9-0.6c9.6-1.4,16.9-3.7,22.6-6.6L9.5,30.5z"/>
<path class="st0" d="M45,54.1c-14.6,0-23.7-5.6-28.8-10.5C10.5,38,6.6,29.5,6.4,29.1l2.1-0.9c0,0.1,4,8.5,9.4,13.7
	c5.2,5,14.8,10.8,30.9,9.8c0.1,0,5.9-0.2,11.7-2.2c5.7-2.1,7.5-3.3,7.6-3.3l1.3,1.9c-0.1,0.1-2,1.4-8.1,3.6
	C55.1,53.8,49.1,54,48.8,54C47.5,54.1,46.3,54.1,45,54.1z"/>
<path class="st0" d="M48,61.2c-9.3,0-16.9-7.6-16.9-16.8S38.7,27.5,48,27.5s16.8,7.6,16.8,16.8S57.3,61.2,48,61.2z M48,29.8
	c-8,0-14.6,6.5-14.6,14.6c0,8,6.5,14.6,14.6,14.6c8,0,14.6-6.5,14.6-14.6C62.5,36.3,56,29.8,48,29.8z"/>
<g>
	<path class="st0" d="M106.5,76.6V59h6c1,0,1.8,0.1,2.6,0.3c0.8,0.2,1.4,0.5,1.9,0.9c0.5,0.4,0.9,0.9,1.2,1.5
		c0.3,0.6,0.4,1.3,0.4,2.1c0,0.8-0.2,1.5-0.7,2.2s-1.1,1.1-1.9,1.5c0.5,0.1,1,0.3,1.3,0.6c0.4,0.3,0.7,0.6,0.9,0.9
		c0.2,0.4,0.4,0.7,0.6,1.2c0.1,0.4,0.2,0.9,0.2,1.3c0,0.8-0.1,1.6-0.4,2.2c-0.3,0.6-0.7,1.2-1.2,1.6c-0.5,0.4-1.2,0.8-1.9,1
		c-0.8,0.2-1.6,0.3-2.6,0.3H106.5z M109.6,66.4h3c1,0,1.7-0.2,2.2-0.6c0.5-0.4,0.8-1,0.8-1.8c0-0.9-0.2-1.5-0.7-1.9
		c-0.5-0.4-1.3-0.6-2.3-0.6h-3V66.4z M109.6,68.7v5.5h3.4c0.5,0,0.9-0.1,1.3-0.2s0.7-0.3,1-0.6s0.5-0.5,0.6-0.9
		c0.1-0.3,0.2-0.7,0.2-1.1c0-0.9-0.2-1.6-0.7-2.1c-0.5-0.5-1.2-0.8-2.2-0.8H109.6z"/>
</g>
<g>
	<path class="st0" d="M11.5,13.5H4.6l-1.4,4.1H0L6.7,0h2.8l6.7,17.6h-3.2L11.5,13.5z M5.5,11.1h5.1L8,3.7L5.5,11.1z"/>
</g>
</svg>
