<?xml version="1.0" encoding="utf-8"?>
<!-- Generator: Adobe Illustrator 23.0.3, SVG Export Plug-In . SVG Version: 6.00 Build 0)  -->
<svg version="1.1" id="Layer_1" xmlns="http://www.w3.org/2000/svg" xmlns:xlink="http://www.w3.org/1999/xlink" x="0px" y="0px"
	 viewBox="0 0 27.7 30.8" style="enable-background:new 0 0 27.7 30.8;" xml:space="preserve">
<style type="text/css">
	.st0{fill:#F7F8F8;}
</style>
<g>
	<path class="st0" d="M13.8,0C17.3,0,20,0.8,22,2.4s3,3.8,3,6.6c0,1.6-0.4,2.9-1.2,4s-2,2.1-3.7,2.8c1.8,0.5,3.1,1.4,3.9,2.7
		c0.8,1.2,1.2,2.8,1.2,4.6v1.6c0,0.7,0.1,1.2,0.4,1.6s0.7,0.6,1.3,0.7l0.8,0.1v3.7h-3.2c-2,0-3.4-0.5-4.2-1.6s-1.2-2.5-1.2-4.2v-1.8
		c0-1.5-0.4-2.7-1.2-3.5c-0.8-0.9-1.9-1.3-3.4-1.3H9.4v8.1l3.3,0.6v3.7H0v-3.7l3.3-0.6V4.4L0,3.7V0h3.3H13.8z M9.4,13.6h4.3
		c1.7,0,3-0.4,3.9-1.1c0.9-0.7,1.3-1.8,1.3-3.2S18.5,6.8,17.6,6c-0.9-0.8-2.1-1.2-3.8-1.2H9.4V13.6z"/>
</g>
</svg>
