<?xml version="1.0" encoding="UTF-8" standalone="no"?>
<svg xmlns:dc="http://purl.org/dc/elements/1.1/"
  xmlns:cc="http://creativecommons.org/ns#"
  xmlns:rdf="http://www.w3.org/1999/02/22-rdf-syntax-ns#"
  xmlns:svg="http://www.w3.org/2000/svg"
  xmlns="http://www.w3.org/2000/svg"
  xmlns:sodipodi="http://sodipodi.sourceforge.net/DTD/sodipodi-0.dtd"
  xmlns:inkscape="http://www.inkscape.org/namespaces/inkscape" version="1.1" viewBox="0 0 90.4 33.4" xml:space="preserve" width="90.400002" height="33.400002">
  <style type="text/css" id="style999">
	.st0{fill:#F7F8F8;}
  </style>
  <g id="g1009" transform="translate(-42,-0.5)">
    <path class="st0" d="m 55.8,2.7 c 3.5,0 6.2,0.8 8.2,2.4 2,1.6 3,3.8 3,6.6 0,1.6 -0.4,2.9 -1.2,4 -0.8,1.1 -2,2.1 -3.7,2.8 1.8,0.5 3.1,1.4 3.9,2.7 0.8,1.2 1.2,2.8 1.2,4.6 v 1.6 c 0,0.7 0.1,1.2 0.4,1.6 0.3,0.4 0.7,0.6 1.3,0.7 l 0.8,0.1 v 3.7 h -3.2 c -2,0 -3.4,-0.5 -4.2,-1.6 -0.8,-1.1 -1.2,-2.5 -1.2,-4.2 v -1.8 c 0,-1.5 -0.4,-2.7 -1.2,-3.5 -0.8,-0.9 -1.9,-1.3 -3.4,-1.3 h -5.1 v 8.1 l 3.3,0.6 v 3.7 H 42 v -3.7 l 3.3,-0.6 V 7.1 L 42,6.4 V 2.7 h 3.3 z m -4.4,13.6 h 4.3 c 1.7,0 3,-0.4 3.9,-1.1 0.9,-0.7 1.3,-1.8 1.3,-3.2 0,-1.4 -0.4,-2.5 -1.3,-3.3 C 58.7,7.9 57.5,7.5 55.8,7.5 h -4.4 z" id="path1001" />
    <path class="st0" d="m 71.7,29.8 3,-0.6 V 15 l -3.3,-0.6 v -3.7 h 9.5 v 18.5 l 3,0.6 v 3.7 H 71.7 Z M 80.9,5.1 H 74.7 V 0.5 h 6.2 z" id="path1003" />
    <path class="st0" d="m 104.5,18.5 h -4.1 l -0.7,-2.9 c -0.4,-0.3 -1,-0.6 -1.6,-0.8 -0.6,-0.2 -1.3,-0.3 -2.1,-0.3 -1.1,0 -1.9,0.2 -2.6,0.7 -0.7,0.5 -1,1.1 -1,1.8 0,0.7 0.3,1.3 0.9,1.7 0.6,0.5 1.8,0.9 3.6,1.2 2.8,0.6 4.9,1.4 6.3,2.5 1.4,1.1 2,2.6 2,4.5 0,2.1 -0.9,3.7 -2.7,5 -1.8,1.3 -4.1,2 -7,2 -1.8,0 -3.4,-0.3 -4.9,-0.8 -1.5,-0.5 -2.8,-1.3 -3.9,-2.2 l -0.1,-5.1 h 4.3 l 0.8,3 c 0.4,0.3 0.9,0.5 1.5,0.7 0.6,0.1 1.3,0.2 2,0.2 1.3,0 2.2,-0.2 2.9,-0.7 0.7,-0.5 1,-1.1 1,-1.8 0,-0.7 -0.3,-1.3 -1,-1.8 -0.7,-0.5 -1.9,-0.9 -3.7,-1.3 -2.7,-0.5 -4.7,-1.4 -6.1,-2.4 -1.4,-1.1 -2.1,-2.5 -2.1,-4.4 0,-1.9 0.8,-3.6 2.4,-5 1.6,-1.4 3.8,-2.1 6.7,-2.1 1.8,0 3.5,0.2 5,0.7 1.6,0.5 2.8,1.1 3.7,1.8 z" id="path1005" />
    <path class="st0" d="M 107.5,4.2 V 0.5 h 9.4 v 19.1 h 1.4 l 3.6,-5 -2,-0.3 v -3.7 h 11.2 v 3.7 l -2.7,0.6 -4.1,5.7 5.8,8.7 2.3,0.5 v 3.7 h -10.6 v -3.7 l 1.3,-0.2 -3.5,-5.7 H 117 v 5.2 l 2.7,0.6 v 3.8 h -11.9 v -3.7 l 3,-0.6 V 4.9 Z" id="path1007" />
  </g>
</svg>
