<?xml version="1.0" encoding="utf-8"?>
<!-- Generator: Adobe Illustrator 23.0.3, SVG Export Plug-In . SVG Version: 6.00 Build 0)  -->
<svg version="1.1" id="Layer_1" xmlns="http://www.w3.org/2000/svg" xmlns:xlink="http://www.w3.org/1999/xlink" x="0px" y="0px"
	 viewBox="0 0 172.8 34.4" style="enable-background:new 0 0 172.8 34.4;" xml:space="preserve">
<style type="text/css">
	.st0{fill:#F7F8F8;}
</style>
<g>
	<path class="st0" d="M55.8,2.7c3.5,0,6.2,0.8,8.2,2.4c2,1.6,3,3.8,3,6.6c0,1.6-0.4,2.9-1.2,4s-2,2.1-3.7,2.8
		c1.8,0.5,3.1,1.4,3.9,2.7c0.8,1.2,1.2,2.8,1.2,4.6v1.6c0,0.7,0.1,1.2,0.4,1.6c0.3,0.4,0.7,0.6,1.3,0.7l0.8,0.1v3.7h-3.2
		c-2,0-3.4-0.5-4.2-1.6s-1.2-2.5-1.2-4.2v-1.8c0-1.5-0.4-2.7-1.2-3.5c-0.8-0.9-1.9-1.3-3.4-1.3h-5.1v8.1l3.3,0.6v3.7H42v-3.7
		l3.3-0.6V7.1L42,6.4V2.7h3.3H55.8z M51.4,16.3h4.3c1.7,0,3-0.4,3.9-1.1c0.9-0.7,1.3-1.8,1.3-3.2s-0.4-2.5-1.3-3.3
		c-0.9-0.8-2.1-1.2-3.8-1.2h-4.4V16.3z"/>
	<path class="st0" d="M71.7,29.8l3-0.6V15l-3.3-0.6v-3.7h9.5v18.5l3,0.6v3.7H71.7V29.8z M80.9,5.1h-6.2V0.5h6.2V5.1z"/>
	<path class="st0" d="M104.5,18.5h-4.1l-0.7-2.9c-0.4-0.3-1-0.6-1.6-0.8s-1.3-0.3-2.1-0.3c-1.1,0-1.9,0.2-2.6,0.7s-1,1.1-1,1.8
		s0.3,1.3,0.9,1.7c0.6,0.5,1.8,0.9,3.6,1.2c2.8,0.6,4.9,1.4,6.3,2.5c1.4,1.1,2,2.6,2,4.5c0,2.1-0.9,3.7-2.7,5c-1.8,1.3-4.1,2-7,2
		c-1.8,0-3.4-0.3-4.9-0.8s-2.8-1.3-3.9-2.2l-0.1-5.1h4.3l0.8,3c0.4,0.3,0.9,0.5,1.5,0.7c0.6,0.1,1.3,0.2,2,0.2
		c1.3,0,2.2-0.2,2.9-0.7c0.7-0.5,1-1.1,1-1.8c0-0.7-0.3-1.3-1-1.8c-0.7-0.5-1.9-0.9-3.7-1.3c-2.7-0.5-4.7-1.4-6.1-2.4
		c-1.4-1.1-2.1-2.5-2.1-4.4s0.8-3.6,2.4-5s3.8-2.1,6.7-2.1c1.8,0,3.5,0.2,5,0.7c1.6,0.5,2.8,1.1,3.7,1.8L104.5,18.5z"/>
	<path class="st0" d="M107.5,4.2V0.5h9.4v19.1h1.4l3.6-5l-2-0.3v-3.7h11.2v3.7l-2.7,0.6l-4.1,5.7l5.8,8.7l2.3,0.5v3.7h-10.6v-3.7
		l1.3-0.2l-3.5-5.7H117v5.2l2.7,0.6v3.8h-11.9v-3.7l3-0.6V4.9L107.5,4.2z"/>
</g>
</svg>
