<?xml version="1.0" encoding="utf-8"?>
<svg version="1.1" id="Layer_1" xmlns="http://www.w3.org/2000/svg" xmlns:xlink="http://www.w3.org/1999/xlink" x="0px" y="0px"
	 viewBox="0 0 410.5 355.5" style="enable-background:new 0 0 410.5 355.5;" xml:space="preserve">
<style type="text/css">
	.st0{fill:#F7F8F8;}
</style>
<path class="st0" d="M307.9,0H102.6L0,177.7l102.6,177.7h205.2l102.6-177.7L307.9,0z M234.1,95.3l32.6,32.6c1.8,1.8,1.8,4.6,0,6.4
	l-59,59c-1.8,1.8-4.6,1.8-6.4,0l-32.6-32.6c-1.8-1.8-1.8-4.6,0-6.4l59-59C229.5,93.5,232.4,93.5,234.1,95.3z M183.7,217.4
	l-33.2,33.2c-1.8,1.8-4.6,1.8-6.4,0L111.5,218c-1.8-1.8-1.8-4.6,0-6.4l33.2-33.2c1.8-1.8,4.6-1.8,6.4,0l32.6,32.6
	C185.4,212.8,185.4,215.6,183.7,217.4z M84.2,121.8l84.4-84.4c1.8-1.8,4.6-1.8,6.4,0L207.7,70c1.8,1.8,1.8,4.6,0,6.4l-84.4,84.4
	c-1.8,1.8-4.6,1.8-6.4,0l-32.6-32.6C82.5,126.4,82.5,123.6,84.2,121.8z M56.5,221.2l-10.4-10.4l-18.6-32.2l29-29
	c1.8-1.8,4.6-1.8,6.4,0l32.6,32.6c1.8,1.8,1.8,4.6,0,6.4l-32.6,32.6C61.1,222.9,58.3,222.9,56.5,221.2z M125.6,275.5l-26.7,26.7
	l-28.5-49.4l16.2-16.2c1.8-1.8,4.6-1.8,6.4,0l32.6,32.6C127.3,270.9,127.3,273.7,125.6,275.5z M203.4,314.6L186,332.1h-36.8
	l-17.4-17.4c-1.8-1.8-1.8-4.6,0-6.4l32.6-32.6c1.8-1.8,4.6-1.8,6.4,0l32.6,32.6C205.2,310,205.2,312.9,203.4,314.6z M190.5,255.9
	c-1.8-1.8-1.8-4.6,0-6.4l94.3-94.3c1.8-1.8,4.6-1.8,6.4,0l32.6,32.6c1.8,1.8,1.8,4.6,0,6.4l-94.3,94.3c-1.8,1.8-4.6,1.8-6.4,0
	L190.5,255.9z M294.3,332.1H225L342.1,215c1.8-1.8,4.6-1.8,6.4,0l8.6,8.6L294.3,332.1z"/>
</svg>
