<?xml version="1.0" encoding="utf-8"?>
<!-- Generator: Adobe Illustrator 23.0.3, SVG Export Plug-In . SVG Version: 6.00 Build 0)  -->
<svg version="1.1" id="Layer_1" xmlns="http://www.w3.org/2000/svg" xmlns:xlink="http://www.w3.org/1999/xlink" x="0px" y="0px"
	 viewBox="0 0 1095.2 137.2" style="enable-background:new 0 0 1095.2 137.2;" xml:space="preserve">
<style type="text/css">
	.st0{fill:#F7F8F8;}
</style>
<g>
	<polygon class="st0" points="90,112.7 53.8,112.7 28.3,68.6 53.8,24.5 116.9,24.5 131.1,0 39.6,0 0,68.6 39.6,137.2 75.8,137.2 	
		"/>
	<polygon class="st0" points="151.4,56.4 72.1,56.4 86.3,80.9 123.1,80.9 104.7,112.7 104.7,112.7 90.5,137.2 118.8,137.2 
		158.4,68.6 	"/>
</g>
<polygon class="st0" points="224.5,0 214.7,0 143.3,137.2 171.6,137.2 183.1,115.2 183.1,115.2 198.5,85.6 198.5,85.6 219.6,44.9 
	243.4,90.7 210.5,90.7 197.8,115.2 256.2,115.2 267.7,137.2 296,137.2 "/>
<g>
	<polygon class="st0" points="435,58.6 461.9,26.5 461.9,0 452.1,0 387.5,77 322.9,0 313.1,0 313.1,137.2 340.1,137.2 340.1,58.6 
		382.6,109.3 392.4,109.3 	"/>
	<polygon class="st0" points="435,77 435,137.2 461.9,137.2 461.9,44.9 	"/>
</g>
<polygon class="st0" points="510.9,80.9 572.7,80.9 586.9,56.4 510.9,56.4 510.9,24.5 586.9,24.5 586.9,0 484,0 484,137.2 
	586.9,137.2 586.9,112.7 510.9,112.7 "/>
<polygon class="st0" points="716.7,24.5 716.7,0 613.8,0 613.8,56.4 604,56.4 589.9,80.9 613.8,80.9 613.8,137.2 640.8,137.2 
	640.8,80.9 695.2,80.9 709.4,56.4 640.8,56.4 640.8,24.5 "/>
<polygon class="st0" points="858.6,112.7 839.2,112.7 763.3,112.7 763.3,80.9 817.7,80.9 831.9,56.4 763.3,56.4 763.3,24.5 
	839.2,24.5 839.2,0 736.3,0 736.3,24.5 736.3,137.2 839.2,137.2 844.4,137.2 "/>
<polygon class="st0" points="891.4,56.4 882.2,40.4 891.4,24.5 946.9,24.5 961,0 877.3,0 853.9,40.4 877.3,80.9 940.7,80.9 
	949.9,96.8 940.7,112.7 875.7,112.7 861.6,137.2 954.8,137.2 978.2,96.8 954.8,56.4 "/>
<polygon class="st0" points="978.2,0 964,24.5 1012.5,24.5 1012.5,137.2 1041.9,137.2 1041.9,24.5 1081.1,24.5 1095.2,0 "/>
</svg>
