<?xml version="1.0" encoding="utf-8"?>
<!-- Generator: Adobe Illustrator 23.0.3, SVG Export Plug-In . SVG Version: 6.00 Build 0)  -->
<svg version="1.1" id="Layer_1" xmlns="http://www.w3.org/2000/svg" xmlns:xlink="http://www.w3.org/1999/xlink" x="0px" y="0px"
	 viewBox="0 0 375.8 375.8" style="enable-background:new 0 0 375.8 375.8;" xml:space="preserve">
<style type="text/css">
	.st0{fill:none;stroke:#F7F8F8;stroke-width:18;stroke-miterlimit:10;}
	.st1{fill:#F7F8F8;}
</style>
<rect x="9" y="9" class="st0" width="357.8" height="357.8"/>
<path class="st1" d="M109.9,122.8H74.6c-1.6,0-3,1.4-3,3v163.4c0,1.6,1.4,3,3,3h35.3c1.6,0,3-1.4,3-3V125.8
	C112.9,124.1,111.5,122.8,109.9,122.8z"/>
<path class="st1" d="M109.9,111.1H74.6c-1.6,0-3-1.3-3-3V91.9c0-1.6,1.4-3,3-3h35.3c1.6,0,3,1.4,3,3v16.2
	C112.9,109.8,111.5,111.1,109.9,111.1z"/>
<path class="st1" d="M177.6,145h-49.1c-1.7,0-3,1.3-3,3v147.5c0,1.6,1.3,3,3,3h49.1c1.6,0,3-1.4,3-3V148
	C180.6,146.3,179.3,145,177.6,145z"/>
<path class="st1" d="M177.6,135.4h-49.1c-1.7,0-3-1.3-3-3v-24.7c0-1.6,1.3-3,3-3h49.1c1.6,0,3,1.4,3,3v24.7
	C180.6,134.2,179.3,135.4,177.6,135.4z"/>
<path class="st1" d="M193.6,105.9l36.3-1c1.6-0.1,3.1,1.3,3.1,2.9l5.3,185.5c0.1,1.6-1.3,3.1-2.9,3.1l-36.3,1.1
	c-1.7,0.1-3.1-1.3-3.1-2.9L190.6,109C190.6,107.3,191.9,105.9,193.6,105.9z"/>
<path class="st1" d="M228.9,69.9L192.6,71c-1.7,0.1-3,1.4-2.9,3.1l0.5,17.3c0.1,1.7,1.4,3,3.1,2.9l36.3-1.1c1.7-0.1,3-1.4,2.9-3.1
	L232,72.8C231.9,71.2,230.6,69.9,228.9,69.9z"/>
<path class="st1" d="M283.5,133.8l-34.9,4.1c-1.7,0.2-2.9,1.7-2.7,3.4L264,292.9c0.2,1.6,1.7,2.9,3.4,2.7l34.9-4.1
	c1.6-0.2,2.9-1.7,2.7-3.4l-18.1-151.6C286.6,134.9,285.1,133.6,283.5,133.8z"/>
<path class="st1" d="M279.1,97.1l-34.9,4.2c-1.6,0.2-2.8,1.7-2.6,3.4l2.2,18.1c0.2,1.7,1.7,2.9,3.4,2.6l34.9-4.2
	c1.7-0.2,2.9-1.7,2.6-3.4l-2.2-18.1C282.3,98,280.8,96.8,279.1,97.1z"/>
</svg>
