<?xml version="1.0" encoding="utf-8"?>
<svg version="1.1" id="Layer_1" xmlns="http://www.w3.org/2000/svg" xmlns:xlink="http://www.w3.org/1999/xlink" x="0px" y="0px"
	 viewBox="0 0 76.8 76.8" style="enable-background:new 0 0 76.8 76.8;" xml:space="preserve">
<path style="fill: #69AE5E;" d="M0.1,40.4c1,19.7,17.4,35.7,37.1,36.3c8.3,0.3,16-2.2,22.4-6.4c0.4-0.3,1-0.2,1.3,0.2l2.5,3.6
	c0.4,0.6,1.3,0.4,1.5-0.2l3.5-9.9l3.7-10.3c0.2-0.5-0.2-1.1-0.8-1.1l-10.9-0.1l-10.5,0c-0.7,0-1.1,0.8-0.7,1.3l2.8,4
	c0.3,0.4,0.2,1.1-0.2,1.3c-4.1,2.6-8.9,4.1-14.1,3.9c-12.8-0.4-23.5-11-24-23.8c-0.5-14.1,10.8-25.8,24.8-25.8
	c11.3,0,20.8,7.6,23.8,17.9H41.4c-0.5,0-0.9-0.4-0.9-0.9v-4.8c0-0.7-0.8-1.1-1.3-0.7l-8.6,6.1l-8.9,6.3c-0.5,0.3-0.5,1,0,1.4
	l8.9,6.3l8.6,6.1c0.6,0.4,1.3,0,1.3-0.7v-4.2c0-0.5,0.4-0.9,0.9-0.9h27.2c2.4,0,4.7,0.1,6.7,0.1c0.5,0,0.9-0.3,0.9-0.8
	c0.3-2,0.5-4.1,0.5-6.3C76.8,17.2,59.5,0,38.4,0C16.5,0-1.1,18.3,0.1,40.4"/>
</svg>
