<?xml version="1.0" encoding="utf-8"?>
<svg version="1.1" id="Layer_1" xmlns="http://www.w3.org/2000/svg" xmlns:xlink="http://www.w3.org/1999/xlink" x="0px" y="0px"
	 viewBox="0 0 365 75.3" style="enable-background:new 0 0 365 75.3;" xml:space="preserve">
<path style="fill: #292562;" d="M28.3,57.7L26.6,52h-0.3c-2,2.5-3.9,4.2-5.9,5.1c-2,0.9-4.5,1.3-7.7,1.3c-4,0-7.1-1.1-9.4-3.2
  C1.1,53,0,50,0,46c0-4.2,1.6-7.4,4.7-9.5c3.1-2.1,7.9-3.3,14.2-3.5l7-0.2v-2.2c0-2.6-0.6-4.5-1.8-5.8s-3.1-1.9-5.6-1.9
  c-2.1,0-4.1,0.3-6,0.9C10.6,24.4,8.7,25.1,7,26l-2.8-6.2c2.2-1.2,4.6-2,7.2-2.6c2.6-0.6,5.1-0.9,7.4-0.9c5.2,0,9.1,1.1,11.7,3.4
  c2.6,2.3,4,5.8,4,10.6v27.4H28.3z M15.5,51.8c3.1,0,5.7-0.9,7.6-2.6c1.9-1.8,2.9-4.2,2.9-7.4v-3.5l-5.2,0.2c-4.1,0.1-7,0.8-8.9,2
  C9.9,41.7,9,43.6,9,46.1c0,1.8,0.5,3.2,1.6,4.2S13.3,51.8,15.5,51.8z"/>
<path style="fill: #292562;" d="M55.6,36.9L42,17h9.9l9.3,14.2L70.4,17h9.8L66.5,36.9l14.4,20.8h-9.8l-10-15.2l-10,15.2h-9.8L55.6,36.9z"/>
<path style="fill: #292562;" d="M87.6,6.2c0-1.5,0.4-2.7,1.3-3.6c0.8-0.8,2.1-1.3,3.6-1.3c1.5,0,2.7,0.4,3.6,1.3c0.8,0.8,1.3,2,1.3,3.6
  c0,1.5-0.4,2.6-1.3,3.5c-0.8,0.8-2,1.3-3.6,1.3c-1.6,0-2.8-0.4-3.6-1.3C88,8.9,87.6,7.7,87.6,6.2z M96.7,57.7h-8.6V17h8.6V57.7z"/>
<path style="fill: #292562;" d="M136.4,46.1c0,4-1.4,7-4.3,9.1c-2.9,2.1-7,3.2-12.4,3.2c-5.4,0-9.8-0.8-13.1-2.5v-7.5
  c4.8,2.2,9.2,3.3,13.4,3.3c5.3,0,8-1.6,8-4.8c0-1-0.3-1.9-0.9-2.6s-1.6-1.4-2.9-2.1c-1.3-0.7-3.2-1.6-5.6-2.5
  c-4.7-1.8-7.9-3.6-9.5-5.4c-1.7-1.8-2.5-4.2-2.5-7.1c0-3.5,1.4-6.2,4.2-8.1c2.8-1.9,6.6-2.9,11.5-2.9c4.8,0,9.3,1,13.6,2.9
  l-2.8,6.5c-4.4-1.8-8.1-2.7-11.1-2.7c-4.6,0-6.8,1.3-6.8,3.9c0,1.3,0.6,2.4,1.8,3.2c1.2,0.9,3.8,2.1,7.8,3.6
  c3.4,1.3,5.8,2.5,7.3,3.6c1.5,1.1,2.6,2.3,3.4,3.7C136,42.5,136.4,44.1,136.4,46.1z"/>
<path style="fill: #69AE5E;" d="M162.9,15.8c1.7,0,3.2,0.1,4.3,0.4l-0.8,8.1c-1.2-0.3-2.5-0.4-3.8-0.4c-3.5,0-6.3,1.1-8.4,3.4
  c-2.1,2.3-3.2,5.2-3.2,8.8v21.3h-8.6V16.6h6.8l1.1,7.2h0.4c1.3-2.4,3.1-4.4,5.3-5.8C158,16.5,160.4,15.8,162.9,15.8z"/>
<path style="fill: #69AE5E;" d="M239.7,58c-5.2,0-9.1-1.9-12-5.6h-0.5c0.3,3.4,0.5,5.5,0.5,6.3v16.7h-8.6V16.6h7c0.2,0.8,0.6,2.6,1.2,5.4h0.4
  c2.7-4.1,6.7-6.2,12.1-6.2c5.1,0,9,1.8,11.9,5.5c2.8,3.7,4.2,8.8,4.2,15.5s-1.4,11.8-4.3,15.6C248.8,56.1,244.8,58,239.7,58z
    M237.6,22.9c-3.4,0-5.9,1-7.5,3c-1.6,2-2.4,5.2-2.4,9.6v1.3c0,5,0.8,8.5,2.4,10.8c1.6,2.2,4.1,3.3,7.7,3.3c3,0,5.3-1.2,6.9-3.7
  c1.6-2.5,2.4-5.9,2.4-10.5c0-4.6-0.8-8-2.4-10.4C243.1,24.1,240.8,22.9,237.6,22.9z"/>
<path style="fill: #69AE5E;" d="M274.7,57.2H266V0h8.6V57.2z"/>
<path style="fill: #69AE5E;" d="M312.5,57.2l-1.7-5.7h-0.3c-2,2.5-3.9,4.2-5.9,5.1c-2,0.9-4.5,1.3-7.7,1.3c-4,0-7.1-1.1-9.4-3.2
  c-2.2-2.2-3.4-5.2-3.4-9.2c0-4.2,1.6-7.4,4.7-9.5c3.1-2.1,7.9-3.3,14.2-3.5l7-0.2v-2.2c0-2.6-0.6-4.5-1.8-5.8s-3.1-1.9-5.6-1.9
  c-2.1,0-4.1,0.3-6,0.9c-1.9,0.6-3.8,1.3-5.5,2.2l-2.8-6.2c2.2-1.2,4.6-2,7.2-2.6c2.6-0.6,5.1-0.9,7.4-0.9c5.2,0,9.1,1.1,11.7,3.4
  c2.6,2.3,4,5.8,4,10.6v27.4H312.5z M299.6,51.4c3.1,0,5.7-0.9,7.6-2.6c1.9-1.8,2.9-4.2,2.9-7.4v-3.5l-5.2,0.2c-4.1,0.1-7,0.8-8.9,2
  c-1.9,1.2-2.8,3.1-2.8,5.6c0,1.8,0.5,3.2,1.6,4.2S297.5,51.4,299.6,51.4z"/>
<path style="fill: #69AE5E;" d="M324.6,16.6h9.4l8.3,23.1c1.3,3.3,2.1,6.4,2.5,9.3h0.3c0.2-1.3,0.6-3,1.2-4.9c0.6-1.9,3.7-11.1,9.3-27.4h9.3
  l-17.4,46.1c-3.2,8.5-8.4,12.7-15.8,12.7c-1.9,0-3.8-0.2-5.6-0.6v-6.8c1.3,0.3,2.8,0.4,4.5,0.4c4.2,0,7.1-2.4,8.8-7.2l1.5-3.8
  L324.6,16.6z"/>
<path style="fill: #69AE5E;" d="M168.5,38.2c0.6,11.3,10,20.5,21.3,20.9c4.8,0.1,9.2-1.2,12.9-3.7c0.2-0.2,0.6-0.1,0.7,0.1l1.4,2.1
	c0.2,0.3,0.7,0.3,0.9-0.1l2-5.7l2.1-5.9c0.1-0.3-0.1-0.6-0.5-0.6l-6.3,0l-6,0c-0.4,0-0.6,0.4-0.4,0.8l1.6,2.3
	c0.2,0.3,0.1,0.6-0.1,0.8c-2.3,1.5-5.1,2.3-8.1,2.3c-7.4-0.2-13.5-6.3-13.8-13.7c-0.3-8.1,6.2-14.8,14.2-14.8
	c6.5,0,12,4.4,13.7,10.3h-11.9c-0.3,0-0.5-0.2-0.5-0.5v-2.8c0-0.4-0.4-0.6-0.8-0.4l-4.9,3.5l-5.1,3.6c-0.3,0.2-0.3,0.6,0,0.8
	l5.1,3.6l4.9,3.5c0.3,0.2,0.8,0,0.8-0.4v-2.4c0-0.3,0.2-0.5,0.5-0.5h15.6c1.4,0,2.7,0,3.8,0.1c0.3,0,0.5-0.2,0.5-0.4
	c0.2-1.2,0.3-2.4,0.3-3.6c0-12.2-9.9-22-22-22C177.9,15,167.8,25.5,168.5,38.2"/>
</svg>
