<?xml version="1.0" encoding="UTF-8"?>
<!DOCTYPE svg  PUBLIC '-//W3C//DTD SVG 1.1//EN'  'http://www.w3.org/Graphics/SVG/1.1/DTD/svg11.dtd'>
<svg enable-background="new 0 0 692.1 586.9" version="1.1" viewBox="0 0 580 586.9" xml:space="preserve" xmlns="http://www.w3.org/2000/svg">
<path style="fill: currentColor;" d="m545.2 526.5c-70.3 17.1-139.6 38.4-208.5 60.4 29.9 0 56.8-10 85.1-19.2 41.3-13.3 82.7-26.4 123.4-41.2z"/>
<path style="fill: currentColor;" d="m547.6 544.5c0.9 2.3 6.4-0.2 7.3-1.5-1.1-2.4-3.8 1.4-7.3 1.5z"/>
<path style="fill: currentColor;" d="m561.3 268.9c-2.8-3.1-8 0.8-11.8 2.1 3.8 1.9 6.9-1.8 11.8-2.1z"/>
<path style="fill: currentColor;" d="m529.5 277.1c5.8 1.5 13.4-3.5 18.7-5-4.6-1.6-11.7 4.1-18.7 5z"/>
<path style="fill: currentColor;" d="m542.5 215.4c-5.3-0.8-9 2.3-15.2 3.9 4 2.5 10.7-2.8 15.2-3.9z"/>
<path style="fill: currentColor;" d="m447.8 539.2c30.2-9.2 60.6-17.9 90.1-29.2-7.6-2.9-23.6 4.4-31.3 6.4-11.7 3-23.2 6.4-34.7 10-21.8 6.8-43.5 14-65.6 19.9-43.7 11.6-86.1 28-129.7 40.6 25.1 0 49.9-9.7 74.1-16.4 32.8-9.1 64.5-21.4 97.1-31.3z"/>
<path style="fill: currentColor;" d="m544.1 545.5c-47.7 11.4-94.5 26.3-141.2 41.4 5.7 0 12.1 0.9 17.6 0 12.9-2.2 26.3-8.3 38.9-12 28.5-8.6 57.5-17 84.7-29.4z"/>
<path style="fill: currentColor;" d="m465.5 586.9c25.7 0 48.8-10.5 72.8-19.3-24.5 5.2-48.7 12-72.8 19.3z"/>
<path style="fill: currentColor;" d="m524.7 220.9c-3.1-0.8-8.4 2.3-12.3 3 2.2 2.2 10-1.4 12.3-3z"/>
<path style="fill: currentColor;" d="m535.9 586.9c4.6 0.6 8.7-1.5 12.9-3-4.3 0.9-8.6 2-12.9 3z"/>
<path style="fill: currentColor;" d="m174.6 319.8c1.3 0.8 4.3 0.9 5.2-0.8-0.8-1.5-3.6 0.8-5.2 0.8z"/>
<path style="fill: currentColor;" d="m539.6 566.4c3.5 1.8 10.5-0.8 13-3.2-3.4-0.8-8.8 2.5-13 3.2z"/>
<path style="fill: currentColor;" d="m528.3 240.1c6.7-1.8 10.9-3.9 16.4-5-4.4-2.2-15 1.6-16.4 5z"/>
<path style="fill: currentColor;" d="m125.3 50.3c-1.3 0.9-5.3 0.4-3.8 2.8 1.3-0.9 5.3-0.4 3.8-2.8z"/>
<path style="fill: currentColor;" d="m413.7 177c-8-0.2-20.7 4.2-30.1 8.5 9.2 0.4 21.3-4.5 30.1-8.5z"/>
<path style="fill: currentColor;" d="m347.3 196.6c-2.6 0.9-7.4-0.5-7.4 3.8 12.9-4.3 26.5-7.1 39-12.7-11.1-0.2-21.5 5.4-31.6 8.9z"/>
<path style="fill: currentColor;" d="m508.3 225.9c-1.2-2.3-7 0.3-6.2 2.7 2.7-0.6 4.6-1.5 6.2-2.7z"/>
<path style="fill: currentColor;" d="m18.8 206.2c16.8-4.9 34.2-7.1 50.8-13 6.4-2.3 12-6.7 18-9 6.9-2.5 15.5-2.7 22.7-4.4 16.5-4.1 32.5-9.5 48.7-14.4 8.4-2.5 18.4-3.8 26.1-8.2 1.4-0.8 11.6-11.2 13.2-8.5s-0.4 3.7 5.4 2c4.4-1.3 7.6-5.8 11.5-8 11.5-6.6 25.6-6.6 37.1-13.7-12.4-0.5-24.5 5.8-36.8 6.8-5.1 0.4-8.3 0.8-13.5 2.5-4 1.3-8.2 3.5-11.7 4.5-12.4 3.5-25.3 4.4-37.9 8.8-13.6 4.8-26.9 10.5-40.8 14.1-12 3.1-23.8 5.4-35.2 10.4s-23.1 5.8-35.2 10.5c-11 4.2-22.8 6.1-33.1 11.3-3.5 1.8-6.9 3.2-8.3 6-1.1 2.3 0 7.2 0 9.8 6.1-2.4 12.9-5.7 19-7.5z"/>
<path style="fill: currentColor;" d="m63.5 171.5c1.5-1 1.8 0.9 3 1 2.8 0.3 7.7-2 10.3-2.8 7.4-2.3 14.9-4.4 22.4-6.6 16.2-4.6 32.5-9 48.7-13.8 15.3-4.6 30.8-9.2 45.6-15.4 15.6-6.6 30.4-15 46.5-20.5-12.7 0.2-27.4 4.9-39.6 8.3-9.2 2.6-18.9 4-28.9 6.1-25.3 5.4-48.3 17.2-72.8 23.6-2.8 0.7-4.6 1.4-6.9 1.9-1.9 0.4-4 0-6 0.5-4.2 0.9-7.9 4.6-11 5.7-8.7 3-25.5 3.4-36 8.1-5.4 2.4-8.4 7.2-14 8.9-5.3 1.6-11.6 1.5-16.7 2.9-8.7 2.3-7.8 4.5-7.8 13.8 10.6-1.7 19.3-7.6 28.9-9.8 12.4-2.8 22.8-5.2 34.3-11.9z"/>
<path style="fill: currentColor;" d="m208.6 169c9.8-3.4 21.7-5.9 30.9-10.4 7.2-3.5 12.9-9.3 21.5-11.9-11-3.1-21.9 4.3-32.4 6.1-13.1 2.2-24.5 3.8-37.3 7.6-27.5 8.2-55.3 15.5-82.5 24.5-24.5 8.2-49.6 14.8-74.2 23.8-6.1 2.2-12.2 4.5-18.5 6.2-3 0.8-14 1.4-16 4.1-1.7 2.4-0.1 11-0.1 14.1 69.4-21.3 139.9-40.5 208.6-64.1z"/>
<path style="fill: currentColor;" d="m123.5 214.6c26.4-8.7 52.9-17.2 79.6-25.2 21.3-6.4 46.3-9.6 63.1-25.6-23.1-5.9-52.1 9.1-74.1 15.3-25.1 7.1-50.4 13.8-74.7 23.2-25.5 9.8-53 15-79.2 23-6.8 2.1-13.6 4.3-20.4 6.4-3.7 1.2-15.8 3.1-17.8 6.1-1.8 2.8 0 12.4 0 15.9 41.5-11.7 82.6-25.6 123.5-39.1z"/>
<path style="fill: currentColor;" d="m252.3 194.6c5.5-1.9 11.8-2.4 17-5 5.4-2.8 8.9-7.4 14.6-10 10.8-4.9 24.9-4.4 33.9-12.8-21.9 2.3-40.8 15.5-63.1 15.7-5.8 0.1-8 2-13 3-5.7 1.1-10.7 0.2-16.4 2-11.5 3.5-22.6 8.4-34.2 11.8-52 15.6-104 31.3-155.8 47.5 4.2-1.9-1-0.7-3-0.5-3.2 0.3-6.5 1.3-9.5 2.2-3.7 1.1-21.6 6.9-11.1 5.7-6.8 2.1-10 1.6-11.6 7.7-0.9 3.3 0 7.9 0 11.4 83.3-28.4 169.1-49.3 252.2-78.7z"/>
<path style="fill: currentColor;" d="m375.3 544.4c55.3-18.7 111.3-35.5 166.1-55.7-31.3 5-60.4 17-91 24.9-25.5 6.5-50.9 14.1-75.3 22.9-5.7 2-10.5 1.8-16.2 2.8-7 1.3-13.9 5-20.5 7.8-14.7 6.2-29.7 10.6-44.9 15.2-30.5 9.2-60.7 17.1-91.5 24.6 7.6 0 15.3 0.4 22.9 0 13.9-0.7 27.5-7 40.9-11.2 18.4-5.8 36.8-11.7 55.3-17.1 17.8-5.3 36.7-8.4 54.2-14.2z"/>
<path style="fill: currentColor;" d="m36.6 162.6c3.2-1.3 5.8-4 9-5.4 4.8-2 5.9 0.4 10.3-0.6 6.5-1.4 14.1-7.3 20.5-9.4 8.2-2.7 17.6-2.5 26.1-5.4 9.4-3.2 18.3-7.2 28.1-8.7 18.7-2.8 34.2-12 52.2-16.8 8.4-2.2 14-7.2 22.3-9.5 7.1-2 15.2-2.5 19.9-9-12.4 0.8-23.9 5.3-36.1 7.3-6.5 1-12.5 4.4-17.5 5.4-21 4.2-43.4 12.8-64.9 20.1-4.6 1.5-8.1 1.3-13 3.5-5.3 2.4-10.1 4.5-15.8 6-11.1 3-22 7.1-33 10.1-10.6 2.8-20.8 2.7-30.8 7.8-5.5 2.8-16.2 3.9-13.8 12 11.6-3.8 25.4-2.9 36.5-7.4z"/>
<path style="fill: currentColor;" d="m0 29.7v2.4c2.3-0.8 4.5-1.5 6.8-2.3-2.3-0.4-4.5-0.4-6.8-0.1z"/>
<path style="fill: currentColor;" d="M54,34c-11.5,2.7-22.9,5.6-34.3,8.7C13.8,44.3-2.2,45,0,53C18.2,47.5,36.9,42.3,54,34z"/>
<path style="fill: currentColor;" d="m93.7 41.3c-17.6 4.6-35.1 9.4-52.6 14.3-8.5 2.4-17 4.8-25.5 7.2-5.2 1.6-17.7 1.6-15.6 9.4 30.6-10 64.8-16.5 93.7-30.9z"/>
<path style="fill: currentColor;" d="m317.3 187.9c-7.6-2.9-15.8 0.9-23.2 2.5-4.6 1-7 0.2-11.8 0.4-6.3 0.2-14 3.9-20.1 5.6-23.8 6.8-47.5 13.8-71.2 21-21.4 6.5-42.8 13.2-64 19.9-12.1 3.8-24.2 7.7-36.2 11.5-6.7 2.1-13.8 5.5-20.7 6.6 0.2 0-13.6 2.2-8.1 2.6-7.7 2.5-15.9 2.7-24 5.3-8.7 2.9-17.4 5.4-26.1 8.1-7.9 2.5-10.3 1.3-11.8 8-0.9 3.8 0 8.5 0 12.4 54-16.8 108.1-32.9 162.2-49.3 51.8-15.6 107.2-28.3 155-54.6z"/>
<path style="fill: currentColor;" d="m37.6 140.4c16.5-6.9 34.5-12.4 51.8-17.2 7-2 13.9-1.8 21-3 3.9-0.6 7.7-1.5 11.2-3.2 2.5-1.2 1.5-3.5 4.1-4.4 5.8-2.1 14.3-1.6 20.7-3.6 3.1-0.9 6.9-1.5 9.7-2.8 2.4-1.1 1.1-2.8 3.1-3.9 13.9-7.7 32.1-11.4 46.9-17.5-10.1 2.8-20.7 3.8-31 5.8-10.4 2-19.5 6.9-29.5 9.1-9.4 2-16.6 5-25.9 8.4-8.6 3.2-16 2.3-24.4 6.1-17.8 8.1-37 12.8-55.8 18.2-8.6 2.5-43 7.6-39.6 19.1 12.7-3.4 25.6-6 37.7-11.1z"/>
<path style="fill: currentColor;" d="m88.2 64.1c8.2-2.1 16.4-4.5 24-8.2-9-1.7-18.4 3.5-26.8 5.7-11.3 3.1-22.6 6-33.9 9.2-10.4 3-20.7 6-31 9.1-5.9 1.8-23 3.2-20.6 11.7 29.3-9.1 58.7-19.9 88.3-27.5z"/>
<path style="fill: currentColor;" d="m173.1 76.2c-4.9-3.4-14.1 1.9-18.9 3.3-8 2.3-16.1 4.4-24.1 6.7-16.6 4.7-33.1 9.5-49.6 14.4-16 4.7-31.9 9.6-47.9 14.4-7.3 2.2-35.4 5.5-32.6 15.7 57.7-18.2 115.8-34.8 173.1-54.5z"/>
<path style="fill: currentColor;" d="m143.4 65.8c-26.5 1.8-52.4 11.4-77.6 19.2-13.2 4-26.3 8.2-39.4 12.4-6.7 2.2-29 4.6-26.4 13.9 48-14.5 96.4-27.7 143.4-45.5z"/>
<path style="fill: currentColor;" d="m0 256.6c-0.3 1.6 0.5 1.6 2.3-0.1-0.8 0.1-1.5 0.1-2.3 0.1z"/>
<path style="fill: currentColor;" d="m20.6 575.3c7.7-1.6 14.9-5.6 22.5-7.5 4.5-1.2 7.6-2.8 12.3-4.4 3.8-1.3 7.4-0.3 11-1.3 2.5-0.7 4.6-3.1 7.3-4 4.1-1.4 8-1 12.2-1.4 10-1.1 16.3-7.7 25.6-10.7 36.5-11.7 71.7-21.7 108.7-33.4 20-6.3 40.5-11.3 59.9-18.8 10.2-4 20.8-2.8 31.1-6 10.7-3.3 21.3-6.6 32-9.9 22-6.7 44-13.4 66-19.9 10.1-3 20.3-6 30.4-9 8.6-2.5 16.3-7.6 24.1-9 17.6-3.3 35.5-10.8 53.3-15.8 9.3-2.7 17.2-7.9 26.6-11 11-3.6 22-7.3 32.2-12.9-10.2-0.6-19.7 3.2-29.3 6-10.5 3.1-21.4 2.6-31.1 6.7-7.6 3.2-15.7 3.4-23.9 6.4-9.1 3.4-18.2 5.5-27.5 8.1-9.2 2.5-17.5 6.7-26.4 9.6-11.5 3.7-23.6 6.1-35.3 9.4-21.3 6-41.8 13.9-62.7 20.8-22.1 7.3-44.8 16.1-67.2 22.5-18.2 5.2-37 6.3-54.3 12.6-9.1 3.3-19.4 5.5-29.1 8.3-4.5 1.3-9.5 1.8-13.8 3.2-3.1 0.9-4.8 2.3-7.6 3.4-1.1 1.1-2.2 2.1-3.3 3.2-1.3-0.3-2.5-0.5-3.8-0.8-4.4 1.2-5.4 0.5-10.2 1.8-4.6 1.3-9.7 1.7-14.4 2.8-12.4 2.9-24.6 6.9-37 9.8-5.4 1.3-11.6 1.3-16.8 2.9s-9.3 4.6-14.7 5.8c-11.3 2.6-21.4 7.5-32.3 10.3-7.9 2-31.6 4.3-35.1 11-1.8 3.4 0 12.3 0 16.4 7.6-3.8 12.9-3.6 20.6-5.2z"/>
<path style="fill: currentColor;" d="m118.9 509.2c-7.1-1.5-15.1 3.1-22 4.1-7.3 1-13 2.9-19.9 5.9-13 5.6-26.6 7.6-40 11.9-6.8 2.1-13.5 4.4-20.3 6.5-3.5 1.1-14.8 2.3-16.6 4.9-2 2.9 0 13.4 0 17.1 21.8-7.4 44.4-11.5 66.2-18.7 21.6-7.1 43.1-14.4 64.8-21 36.9-11.2 74-23 111.3-34.3 39.7-11.9 79.9-22.1 119.5-32.9 20.6-5.6 40.7-12.7 61.1-19.1 10-3.1 20.1-5.9 30.1-8.7 2.6-0.7 5.5-3 6.8-3.5 2.3-0.8 6.5-1.2 10.3-1.8 10.5-1.6 20-7.2 30-10.5 3.7-1.2 8.9-1.3 12.3-3 1.8-0.9 0.4-2.8 2.6-3.9 8.6-4.4 20.2-5.9 29.4-9 12.2-4.2 24.2-8.9 35.9-14.2-9.9 0.1-20.5 4.3-30.2 5.7-7.1 1.1-15.4 2.7-22.5 4.6-3.4 0.9-6 3.1-9.4 4.4-4 1.4-8.8 2.1-13 3.2-8.8 2.4-20.4 4-28.5 7.6-2.1 0.9-3.8 2.1-5.3 3.8-1.3 2.1-3.1 2.4-5.4 0.8-2-1.4-3.8-1.3-5.3 0.2 0.1 0.9-0.1 1.7-0.7 2.3-8.4 1.9-17.4 2.7-26.2 6-21.3 7.8-43 13.3-64.9 19.5-22.1 6.2-44.1 13.5-65.7 21.3-19.8 7.1-39.1 12-59.4 17.5-16.8 4.6-35.2 8.4-50.8 15.1-6.9 2.9-12.9 3.4-20 4.2-8.6 1-16.3 3.1-25 5"/>
<path style="fill: currentColor;" d="m514.3 432.4c0.1-0.1 0.3-0.1 0.4-0.2-0.1 0-0.3 0-0.4 0.2z"/>
<path style="fill: currentColor;" d="m308.3 544.6c17.7-10.7 40.5-10.1 59.5-17.7 8.3-3.3 15.8-4 23.4-8.3 8.6-5 18.1-2.9 27.1-6.2 6.3-2.3 11.6-6.7 18.2-8.9 10.9-3.7 21.9-6.9 32.9-10 23.9-6.8 48-13.5 71-23.2-15.9-1.9-36.7 7.2-51.8 11.4-18.5 5.2-36.6 11.6-54.9 17.3-9.5 3-19.2 3-28.8 5.5-7.8 2-15.3 5.6-23 8.2-17.4 5.9-37.1 9.6-53.1 17.5-15.7 7.8-32.8 12.7-49.7 17.5-18.3 5.2-37.2 12.1-56.1 14.7-33.3 4.5-66.9 15.7-99.2 24.5 20.6 0 38.8 1.3 58.3-5.2 20.8-6.9 41.9-12.7 62.9-18.7 11-3.1 22-6.3 32.8-9.8 9.8-3.1 20.1-9.3 30.5-8.6z"/>
<path style="fill: currentColor;" d="m189.5 561.1c61-19.2 122-39 184-54.2 13.4-3.3 27.7-6.3 40.5-11.6s24.6-11 38.4-13.2c12.1-1.9 25.5-10.3 38-14.2 16.2-5 32.6-9.5 48.1-16.5-24.8 1-47.7 11.5-71.9 15.6-5.9 1-9.7 2.6-15.2 4.8-5.2 2-10.3 2.2-15.9 3.5-5.7 1.4-10.6 3.9-15.9 6.1-6.4 2.6-13 3.7-19.8 5.5-52.2 13.7-102.3 35.2-154.1 50.5 1.1-0.8-7.2-1.2-6.6-1.2-4 0.1-8.3 1.9-12 3-5.5 1.6-11.9 3.2-17 4.4-11.1 2.5-24.9 7.9-37.6 10.7-8.3 1.8-15.1 2.9-23.2 5.7-8.7 3-18 4.9-26.9 7.5-20.2 5.9-40 13.1-60.6 17.1 19.2-5.5 40-9.8 57.9-18.9 16.1-8.1 33.3-12.3 50-18.3 40.7-14.7 83.4-24.8 124.4-38.5 8.3-2.8 17.4-2.1 25.8-5.5 9.2-3.7 18.2-5.6 27.8-8 21.6-5.5 43.4-12.3 64.6-18.6 7.4-2.2 13.7-6.8 21.4-8.5 7.7-1.8 15.7-3.6 23.1-5.6 4-1.1 5.5-3.1 9.1-5.2 4.5-2.6 5-1.5 9.7-2.5 5-1.1 20.5-2.7 19.7-7.6 0.9-0.6 2.4 0.9 2.3 1 0.5-0.3 3.7-1.7 4.5-2 5.6-1.8 10.9-5 16.7-6.8 11.2-3.4 23.1-5.4 32.7-12.6-6.5-3.3-14.6 1-20.9 2.6-3.5 0.9-14.5 1-15.8 4.7-1.3-0.4-1.4-1.1-0.4-2.1-18.7 9.5-39.4 9.1-58.6 17.1-21.3 8.9-44.9 14-67.2 20.8-20.4 6.3-40.3 14.1-60.6 19.6-21.4 5.9-42.7 16.9-64.9 24 2.5-1.1 5-2.3 7.4-3.6-8.6-0.5-16.8 2.2-25 4.7-9.1 2.8-17.8 3.4-27 5-5 0.8-5.5 2.5-9.8 4s-5.5 0.8-10 1.4c-7.8 0.9-15.1 5.5-22.6 7.7-37.2 11.1-74.7 20.3-111.6 32.5-18.1 5.9-36.4 8.2-54.5 14.5-9.4 3.3-14.3 6.9-2.1 6.9 15.6 0 34.7 3.2 49.8-1.1-6.2 2.2-0.3 0.9 2 1.1 4.1 0.4 8.4 0 12.5 0h34.1c11.7 0 13.7-0.9 24.7-7 7.8-4.4 15.2-5.3 23.6-7.5 11-2.9 22.4-7.3 33.4-10.8"/>
<path style="fill: currentColor;" d="m61.8 371.6c72.9-22.4 144.9-47.1 218.2-68.2 16.5-4.8 30-14.6 46.4-19.4 18.5-5.4 36.8-11.6 55.3-17.2 37.4-11.2 76.7-20.3 112.1-37.2-56.9 14.9-112.3 34.3-168.8 50.5-12.2 3.5-23.8 3.2-36 5.7-13.7 2.8-26.9 7.6-40.1 11.9-26.8 8.8-53.5 18.3-80.9 25 2-0.7 4-1.3 6.1-2-38.1 9.8-75.9 20.9-113.6 32.2-17.7 5.3-38.5 8.7-55.2 16.7-6.7 3.2-4.3 1.2-5.2 8-0.5 3.8 0 8 0 11.8 20.4-5.5 41.5-11.8 61.7-17.8z"/>
<path style="fill: currentColor;" d="m75.6 345.5c33.6-8.9 66.9-19 100.2-29.3 31-9.6 62.9-17.7 93.2-29.4 30.2-11.6 59.1-24.6 90.3-33.4 33.6-9.4 66.6-19.3 99.3-31.8-30.7 5.4-60.4 16.3-90.1 25.3-25.8 7.8-53.4 19-79 21.7-25.8 2.7-52.7 12.8-78.3 20.7-24.4 7.5-48.2 15.3-72.2 22.9 6.3-2.6-2.7 0.1-4 0.4-3.8 0.8-7.5 1.7-11.2 2.7-7.8 2-15.6 4.1-23.3 6.4-17.3 5-34.5 10.4-51.8 15.5-8.4 2.5-16.9 4.8-25.4 7.2-4.9 1.4-20.6 3.3-23.3 7.2-2.2 3.2 0 14.4 0 18.6 25.3-8.3 50.8-14.8 75.6-24.7z"/>
<path style="fill: currentColor;" d="m217 282.6c20.1-6.1 40.2-10 59.8-18.1 17.1-7.1 34.3-15.8 52.9-21.7 41.6-13.2 84.3-23 125.1-38.6-58.7 7-111.5 42.4-170.6 46.2-12 0.8-23.8 5.7-35.4 9.2-14.9 4.4-29.8 8.8-44.7 13.2-15.1 4.5-30.2 8.8-45.4 12.5-8.7 2.1-18.7 7-27.1 9.5 1.2-0.8-5.1 0.9-5.3 0.9-4.4 1.4-9.7 3.7-14.4 5.2 1.8-0.8 3.6-1.6 5.4-2.5-23.3 6.1-46.5 12.8-69.5 19.7-11.2 3.4-22.3 6.8-33.4 10.2-3.5 1.1-12.2 2-14.4 4.4-1 1.1-0.6 4.6 1.2 4-2.9 1.7-1.2 10.6-1.2 13.9 36.3-12.1 73.7-21.2 110.2-33.1 35.5-11.6 70.9-23.9 106.8-34.9z"/>
<path style="fill: currentColor;" d="m84.7 514.4c42.5-12.9 85-26.5 128-37.8 44.8-11.8 88.7-27 133.7-38.6 23.7-6.1 46.2-15.5 69.6-22.6 10.5-3.2 21.4-5.2 31.5-9.3 4.5-1.9 6.9-2.1 11.4-3.2 4.8-1.2 7.9-3.3 12.7-4.9 16.4-5.6 32.6-10.4 49.7-15.5 7.6-2.3 14.1-6.6 21.9-8.9 10.9-3.2 21.9-5.6 31.6-12-15.7 0.2-30.9 6.1-45.8 10.5-7.3 2.1-15 3.1-22.2 5.2-4.5 1.3-8.7 4.1-13.7 5.2-12 2.7-25.4 6.3-38.4 9.9-6.2 1.7-11.2 4.3-17 5.9-8.1 2.2-16 3-24.1 6-35.6 13.3-72.6 22.5-108.8 34-36.4 11.6-73.5 20.9-109.7 32.9 10.5-5.1-5.5-1.6-8.3-1-5.7 1.2-11.2 3.2-16.8 4.9-9.8 2.8-20.4 2.4-29.8 5.7-16.5 5.8-35 10.6-52.7 15.5-9.2 2.5-17.7 6.7-26.6 9.6-12.1 3.9-24.8 6.4-37.1 9.9-6 1.7-21.5 4.1-23.9 9.1-1.7 3.6 0 12 0 16.2 14.6-4.3 29.2-8.5 43.8-12.8 13.3-4.1 29.5-6.4 41-13.9z"/>
<path style="fill: currentColor;" d="m81 307.2c31.1-9.6 62.2-19.1 93-29.7 15.7-5.4 31.2-11.3 46.9-16.4 14.7-4.8 29.9-6.4 44-12.7 5.8-2.6 12.1-3 17.8-5.5 5.2-2.3 9.5-6.3 14.6-8.7 14-6.5 29.5-10.1 44.2-14.8 30.8-9.6 62.8-16.8 92.8-28.6-6.8-3.9-21.1 4.1-27.5 6.1-10.9 3.4-21.7 6.8-32.5 10.2-20.1 6.2-40.2 12.8-60.4 18.5-18.2 5.2-35.9 3.5-53.9 9.6-19.9 6.8-39.9 13-60 19.1-39.7 12.1-79.8 24.1-119.3 35.8-20 5.9-40.2 10.6-60.1 16.8-5.7 1.8-18.3 3.7-20.6 8.4-1.5 3.1 0 10.7 0 14.4 27.6-2.5 54.7-14.4 81-22.5z"/>
<path style="fill: currentColor;" d="m20.4 516.1c26.6-8.1 52.9-17.5 79.6-25.4 21.2-6.2 41.4-15.2 63.1-19.7 11.2-2.3 20.9-3.4 31.2-8.4 11.1-5.4 22.6-7 34.6-9.3 24.5-4.8 48.7-14.5 72.7-21.5 26.8-7.8 56.8-13.1 82.3-24.2 19.2-8.4 40.4-16.4 61.3-20.6 11.5-2.3 20.5-8.4 31.7-11 11-2.6 21.3-9.3 32.2-10.9s20.7-6.9 31.6-10.1c12-3.6 24.1-6.9 35.1-13.3-36.3 4.9-70.6 19.7-106.2 26.7-7.5 1.5-12.2 5.6-20.1 6.5-7.6 0.9-16 3-23.1 5.7-16.5 6.2-31.9 11.5-49.2 15.7-32.6 8.1-64.2 20.6-96 29.6-29.3 8.3-60.1 18.4-90 27.6 4.2-1.7 8.4-3.5 12.6-5.4-6.3 0-12.1 2.2-18.1 3.8-5.1 1.4-10.4 0.7-15.3 1.8-8.6 2-16.9 5.7-24.7 8.4-9.5 3.2-20.1 4.9-29.9 7.7-5.1 1.5-10.9 1.7-15.7 3.8-2.7 1.3-5 3.1-7 5.4-2.5-0.5-5-1-7.5-1.6-1.4 0.4-2 1.2-1.7 2.6-0.9 2-2.5 2.3-5 1.1-5.4 1.8-11.6 1.9-17.2 3.8-10.8 3.7-21.3 7.9-32.4 11.1-7.3 2.1-26.1 4.1-29.4 9.7-1.7 2.9 0 11.6 0 15.1 6.8-2.1 13.8-2.7 20.5-4.7z"/>
<path style="fill: currentColor;" d="m21.5 494.7c24.1-7.2 48.2-14.8 72.4-21.4 23.4-6.3 47.6-17.9 71.6-20.8 10.8-1.3 18.6-6.5 28.7-8.2 10-1.6 20-4.1 29.4-7.8 11.3-4.5 19.9-9.9 32-10.8 12.9-1 25.4-6.6 37.5-10.9 25.4-9.1 52-15.2 77.8-23.6 22.1-7.3 44.3-14.7 66.6-20.6 4.3-1.1 5.4-4 8.3-5.4 4.1-2.1 10.7-2.4 15.1-3.5 11-2.9 20.7-8.2 31.5-11.5 24.8-7.7 49.6-15.1 74.1-23.6-13.4-4.7-37.1 7.1-50.2 10.9-15.2 4.5-30.4 10.2-45.9 13.3-29 5.8-55.4 15.9-84.8 24.1-33.1 9.1-65.4 20.5-98.4 30-16.1 4.6-32 9.7-47.7 15.3-6.4 2.3-13.3 1.9-20.5 3.3-9.6 1.9-17 7-26 9.8 1.8-0.9 3.6-2 5.3-3.1-20 0.2-39 9.3-58.2 13.9 72.5-22.9 144-47.5 217.3-67.9 8.2-2.3 16.3-4.7 24-8.5 7.5-3.6 13.4-3.7 21.5-5.4 8.6-1.8 14.9-7.2 22.8-9.8 4.7-1.6 8.6-0.8 14.2-3.1 34-14.5 71.1-21 104.5-37.2-26.8 2.6-51.9 13.8-77.8 20.5-11.1 2.9-22.3 6.1-33.5 8.5-6.3 1.4-29 2.7-30 11.2-7.7-6.8-35.1 7.1-43.8 9.9-17.1 5.5-34.2 11.1-51.4 16.4-18.1 5.6-36.2 9.5-54.5 14.2-19.2 5-37.8 12.7-56.7 18.9 5.9-3.1-1.4-0.9-4.4-0.4-4 0.7-8 1.5-12 2.4-8.1 1.8-16.2 3.9-24.2 6.2 33.2-12 67.3-21.1 100.7-32.6 31.8-11 64.2-21.1 96.6-30.1 14.4-4 31.2-7.1 44.6-13.9 6.4-3.2 10.7-6.4 18.1-7.6 7.7-1.3 11.3-4 18.5-6.7 14.9-5.6 31.2-8.2 46.4-13.4 17.9-6.2 35.5-13 53-19.8-43 6-82.1 25.2-123.8 35.2-14.5 3.5-28.6 5.3-43 9.5-8 2.3-15.8 5.3-23.4 8.7-7.9 3.5-15.5 4.2-24.1 6.1-39.7 8.9-79.4 21.8-118.1 34.3-17.1 5.5-34.8 8.6-52.2 13.7-19.5 5.7-39.3 13.6-59.4 16.8 36.7-10 73.1-21.3 109.5-32.5 38.3-11.8 79-22.1 115.5-38.6 7.9-3.6 15.2-5.4 23.2-7.5 6.8-1.8 13.1-5.3 20-7 8.1-2.1 17.2-2.2 24.8-6 8.4-4.2 15.5-7.8 24.6-10.8 40.1-13 81.6-22.3 120-40.1-38.6 9.7-76.7 21.5-114.8 33-19 5.7-38.3 9.7-57.4 15.2-8.8 2.5-16.6 6.5-25.1 9.6-7.8 2.9-17.2 3.3-25.4 5.1-37.2 8.3-73.6 20.9-110 32.1-18.8 5.8-37.6 9.2-56.5 14.4-19.4 5.4-38.2 12.7-57.9 16.9 42.6-11.6 84.3-25.9 126.5-38.7 21.9-6.6 43.8-13.1 65.3-20.9 17.5-6.4 34.9-14.3 52.6-19.9 75.3-24 150.6-48.2 225.9-72.5-67.4 17.4-134 37.9-200.5 58.4-15.9 4.9-32.1 11.1-48.6 14.1-15.4 2.8-29.4 4.2-44.5 9.4-33.2 11.4-66.7 21.4-100.4 31.2-7.9 3.1-24 4.7-34.4 7.5-13.2 3.6-26.5 7.1-39.6 11.1 35.5-12.4 72.2-21.6 107.9-33.7 17.9-6.1 35.8-11 54-16 16.6-4.6 34-9.8 49.8-17.2 33.7-15.9 71.1-24.2 106.7-35.4 38.8-12.2 79.8-23 117.2-39.1-50.8 10.4-101.4 27-150.4 43-23.5 7.6-47.9 18.7-72.6 19.3-11.1 0.3-20.4 4.4-30.8 8.3-12.9 4.8-26.2 8.5-39.4 12.4-42.5 12.6-73.8 20.6-115 32.3-24.8 7-49.5 14.6-74.2 22.1-6.4 1.9-33.2 5.7-36 10.4-1.7 2.8 0 11.3 0 14.7 22-4.6 44.3-8.5 65.8-15.3-17.3 6.1-34.8 10.6-52.1 15.1-6.4 1.6-11.7 0.3-13.7 5.6-1.2 3.1 0 9.4 0 12.9 12.5-3.3 25.1-6.2 37.7-8.8-3.3 1.1-10.7 2.8-11.3 7.1-5.3-4.7-24.3 1.5-26.4 6.1-1.6 3.5 0 11.3 0 15.2 17.8-5.5 34.8-12.9 53.5-14.1-8 2.4-15.7 5.7-23.5 8.6-7.9 2.9-17.8 3.9-25.2 7.6-6 3-3.8 0.8-4.7 7.4-0.5 3.6 0 7.6 0 11.3 13.6-5.5 27.6-9.7 41.6-14.3 14.4-4.7 30.7-11.2 46-10.3-9.2 5.2-19.1 5.3-29.4 8.2-10.7 3-20.2 8.5-31 11.4-6 1.6-24.8 3.5-27.2 8.2-1.7 3.3 0 11.5 0 15.4 34.3-10.5 69.5-24 105.1-29.2-11.5 4.6-24 6.4-35.5 10.8-10.2 4-21.6 5.4-32.5 9.5-6.2 2.3-12.3 4.8-18.5 6.9-3.5 1.2-16.6 2.5-18.6 5.4s0 12.8 0 16.5c7-2.6 14.2-5 21.4-7.3zm42.9-86.5c-2.9 1-5.9 1.7-9.2 2.2 3.1-0.7 6.1-1.4 9.2-2.2zm-3.5 21.4c-1.6 0.1-3-0.3-4.3-1.2 6.8-1.1 13.6-3.4 20.5-4.7-5.2 2.6-11.4 2.2-16.2 5.9zm48.3 22.6c5.3-0.6 10.5-1.9 15.6-3.3-2.8 1.1-7.7 3.2-10.5 3.7-0.4 0-9.8 0.2-5.1-0.4z"/>
<path style="fill: currentColor;" d="m52.5 295.7c49.3-15.1 98.8-29 147.7-45.5 24.5-8.3 49.6-14.8 74.1-23.1 10.8-3.6 18.8-9.9 28.9-14.5 11.3-5.2 23.9-6.6 35.3-11.7-12.3-2.9-27.4 7-40.2 7.2-16.5 0.2-32.5 5.8-48.2 10.9-32.9 10.7-65.7 21-98.9 30.5-32.4 9.3-64.5 20.1-97.1 28.1-8.5 2.1-16.9 4.5-25.2 7.2-6.9 2.2-20.6 4-26.1 8.7-4.6 3.7-2.8 11.5-2.8 18.2 17.7-4.7 35-10.6 52.5-16z"/>
</svg>
