<?xml version="1.0" encoding="utf-8"?>
<!-- Generator: Adobe Illustrator 23.0.3, SVG Export Plug-In . SVG Version: 6.00 Build 0)  -->
<svg version="1.1" id="Layer_1" xmlns="http://www.w3.org/2000/svg" xmlns:xlink="http://www.w3.org/1999/xlink" x="0px" y="0px"
	 viewBox="0 0 57.2 13" style="enable-background:new 0 0 57.2 13;" xml:space="preserve">
<style type="text/css">
	.st0{fill:#F7F8F8;}
</style>
<g>
	<path class="st0" d="M3.2,10.3c0,0.5-0.1,0.9-0.2,1.2s-0.3,0.6-0.5,0.9c-0.2,0.2-0.5,0.4-0.8,0.5C1.4,13,1,13,0.6,12.9L0,11.3
		c0.2,0.1,0.4,0.1,0.5,0.1c0.2,0,0.3,0,0.5-0.1c0.1-0.1,0.3-0.2,0.3-0.3s0.1-0.4,0.1-0.7V3h1.8V10.3z M3.3,1.8H1.5V0h1.8V1.8z"/>
	<path class="st0" d="M10.5,10H8.7V9.6c-0.3,0.2-0.6,0.4-1,0.4c-0.3,0.1-0.7,0.1-1,0.1c-0.3,0-0.6-0.1-0.9-0.2
		C5.5,9.9,5.3,9.7,5.1,9.6C4.9,9.4,4.7,9.1,4.6,8.9S4.5,8.4,4.5,8c0-0.4,0.1-0.7,0.3-1c0.2-0.3,0.4-0.5,0.7-0.7
		c0.3-0.2,0.6-0.3,1-0.4c0.4-0.1,0.8-0.1,1.3-0.1h1c0-0.4-0.1-0.7-0.4-1C8.1,4.5,7.7,4.4,7.2,4.4c-0.2,0-0.5,0-0.7,0.1
		C6.2,4.6,5.9,4.7,5.7,5l-1-1C5,3.6,5.5,3.3,5.9,3.1c0.5-0.2,1-0.3,1.5-0.3c0.5,0,0.9,0.1,1.3,0.2c0.4,0.2,0.7,0.3,0.9,0.6
		c0.3,0.3,0.5,0.6,0.6,1s0.2,0.9,0.2,1.4V10z M8.7,8.2V6.9H7.9c-0.2,0-0.5,0-0.7,0C7,7,6.9,7.1,6.7,7.2C6.5,7.2,6.4,7.3,6.3,7.5
		C6.2,7.6,6.2,7.7,6.2,7.9c0,0.2,0.1,0.4,0.3,0.6s0.4,0.2,0.7,0.2c0.3,0,0.5,0,0.8-0.1S8.5,8.4,8.7,8.2z"/>
	<path class="st0" d="M17.6,3l-3.4,5.4h3.3V10h-6.1l3.4-5.4h-3V3H17.6z"/>
	<path class="st0" d="M25.6,6.5c0,0.1,0,0.2,0,0.3c0,0.1,0,0.2,0,0.4H20c0.1,0.2,0.2,0.4,0.3,0.6c0.1,0.2,0.3,0.3,0.4,0.5
		c0.2,0.1,0.4,0.2,0.6,0.3c0.2,0.1,0.4,0.1,0.7,0.1c0.3,0,0.6-0.1,0.9-0.2s0.6-0.3,0.8-0.4l1.1,1.1c-0.5,0.4-1,0.6-1.4,0.8
		s-0.9,0.2-1.5,0.2c-0.5,0-1-0.1-1.5-0.3c-0.5-0.2-0.8-0.5-1.2-0.8c-0.3-0.3-0.6-0.7-0.8-1.2c-0.2-0.4-0.3-0.9-0.3-1.4
		c0-0.5,0.1-1,0.3-1.4c0.2-0.4,0.5-0.8,0.8-1.2s0.7-0.6,1.2-0.8c0.4-0.2,0.9-0.3,1.4-0.3c0.5,0,1,0.1,1.4,0.3
		c0.4,0.2,0.8,0.4,1.2,0.8c0.3,0.3,0.6,0.7,0.8,1.1C25.5,5.5,25.6,5.9,25.6,6.5z M23.8,5.8c-0.1-0.4-0.4-0.8-0.7-1.1
		c-0.3-0.3-0.7-0.4-1.2-0.4c-0.4,0-0.8,0.1-1.2,0.4C20.4,5,20.2,5.4,20,5.8H23.8z"/>
	<path class="st0" d="M33.1,3L30.5,10h-1.7L26.2,3h1.9l1.6,4.7L31.2,3H33.1z"/>
	<path class="st0" d="M41,6.5c0,0.1,0,0.2,0,0.3c0,0.1,0,0.2,0,0.4h-5.5c0.1,0.2,0.2,0.4,0.3,0.6C35.8,8,36,8.1,36.1,8.2
		c0.2,0.1,0.4,0.2,0.6,0.3c0.2,0.1,0.4,0.1,0.7,0.1c0.3,0,0.6-0.1,0.9-0.2s0.6-0.3,0.8-0.4l1.1,1.1c-0.5,0.4-1,0.6-1.4,0.8
		s-0.9,0.2-1.5,0.2c-0.5,0-1-0.1-1.5-0.3c-0.5-0.2-0.8-0.5-1.2-0.8c-0.3-0.3-0.6-0.7-0.8-1.2c-0.2-0.4-0.3-0.9-0.3-1.4
		c0-0.5,0.1-1,0.3-1.4c0.2-0.4,0.5-0.8,0.8-1.2s0.7-0.6,1.2-0.8c0.4-0.2,0.9-0.3,1.4-0.3c0.5,0,1,0.1,1.4,0.3
		c0.4,0.2,0.8,0.4,1.2,0.8c0.3,0.3,0.6,0.7,0.8,1.1C40.9,5.5,41,5.9,41,6.5z M39.2,5.8c-0.1-0.4-0.4-0.8-0.7-1.1
		c-0.3-0.3-0.7-0.4-1.2-0.4c-0.4,0-0.8,0.1-1.2,0.4c-0.3,0.3-0.6,0.6-0.7,1.1H39.2z"/>
	<path class="st0" d="M48.6,10h-1.8V9.6c-0.2,0.2-0.5,0.3-0.7,0.4c-0.3,0.1-0.5,0.1-0.8,0.1c-0.5,0-0.9-0.1-1.3-0.3
		c-0.4-0.2-0.8-0.5-1.1-0.8s-0.5-0.7-0.7-1.2C42,7.4,41.9,7,41.9,6.5c0-0.5,0.1-1,0.3-1.4c0.2-0.4,0.4-0.8,0.7-1.2
		c0.3-0.3,0.7-0.6,1.1-0.8c0.4-0.2,0.8-0.3,1.2-0.3c0.3,0,0.6,0,0.9,0.1s0.5,0.2,0.7,0.3V0h1.8V10z M46.8,8.1V4.8
		c-0.1-0.1-0.2-0.1-0.3-0.2s-0.2-0.1-0.3-0.1c-0.1,0-0.2-0.1-0.3-0.1c-0.1,0-0.2,0-0.3,0c-0.3,0-0.6,0.1-0.8,0.1
		c-0.2,0.1-0.4,0.2-0.6,0.4s-0.3,0.4-0.4,0.7c-0.1,0.3-0.1,0.6-0.1,0.9c0,0.3,0,0.6,0.1,0.9C43.8,7.6,44,7.8,44.1,8s0.4,0.3,0.6,0.4
		c0.2,0.1,0.5,0.2,0.8,0.2C46,8.6,46.4,8.4,46.8,8.1z"/>
	<path class="st0" d="M57.2,6.5c0,0.5-0.1,1-0.3,1.4c-0.2,0.4-0.5,0.8-0.8,1.2c-0.3,0.3-0.7,0.6-1.2,0.8s-0.9,0.3-1.4,0.3
		s-1-0.1-1.4-0.3c-0.4-0.2-0.8-0.4-1.2-0.8c-0.3-0.3-0.6-0.7-0.8-1.2c-0.2-0.4-0.3-0.9-0.3-1.4c0-0.5,0.1-1,0.3-1.4
		c0.2-0.4,0.5-0.8,0.8-1.2c0.3-0.3,0.7-0.6,1.2-0.8s0.9-0.3,1.4-0.3c0.5,0,1,0.1,1.4,0.3s0.8,0.4,1.2,0.8c0.3,0.3,0.6,0.7,0.8,1.2
		C57.1,5.5,57.2,6,57.2,6.5z M55.4,6.5c0-0.3-0.1-0.6-0.2-0.8C55.2,5.4,55,5.2,54.8,5c-0.2-0.2-0.4-0.3-0.6-0.5s-0.5-0.2-0.8-0.2
		c-0.3,0-0.5,0.1-0.8,0.2S52.2,4.8,52.1,5c-0.2,0.2-0.3,0.4-0.4,0.7s-0.2,0.5-0.2,0.8s0.1,0.6,0.2,0.8c0.1,0.3,0.2,0.5,0.4,0.7
		c0.2,0.2,0.4,0.3,0.6,0.4s0.5,0.2,0.8,0.2c0.3,0,0.5-0.1,0.8-0.2s0.4-0.3,0.6-0.4c0.2-0.2,0.3-0.4,0.4-0.7
		C55.4,7.1,55.4,6.8,55.4,6.5z"/>
</g>
</svg>
