<?xml version="1.0" encoding="utf-8"?>
<!-- Generator: Adobe Illustrator 23.0.2, SVG Export Plug-In . SVG Version: 6.00 Build 0)  -->
<svg version="1.1" id="Layer_1" xmlns="http://www.w3.org/2000/svg" xmlns:xlink="http://www.w3.org/1999/xlink" x="0px" y="0px"
	 viewBox="0 0 563.3 653.1" style="enable-background:new 0 0 563.3 653.1;" xml:space="preserve">
<style type="text/css">
	.st0{fill:#F7F8F8;}
</style>
<g>
	<path class="st0" d="M563.3,20.5c-26.3,21.7-45.8,48.4-66,74.4c-9.8,12.6-19.8,25.2-30.1,37.3c-11.8,13.9-24.9,26.4-39.9,36.9
		c-33.7,23.8-71.2,30.2-111.3,23.4c-11.5-1.9-22.8-4.9-34-7.9c-7.7-2.1-15.1-5-24-8C321.5,130.1,390.9,96,459.2,59.4
		c-0.8,0-1.7-0.2-2.5,0c-83.4,22.2-162.5,54.1-234.3,102.7c-41.7,28.3-78.7,61.6-107.4,103.4c-24.1,35-40,73.3-45.3,115.5
		c-6.4,51.9,8,97.8,41.1,138.1c25.1,30.5,57.1,48.9,96.2,54.8c75.1,11.4,148.6-38.3,166.6-112.5c20.6-84.7-33.4-168.9-119.2-183.7
		c-51.7-8.9-96.3,7.5-133.4,44.3c-1.3,1.3-2,3-3,4.6c-0.6-0.5-1.2-0.9-1.7-1.4c0.6-1.4,1.2-2.9,1.9-4.3
		c25.4-48.8,60.7-89,105.6-120.6c2.8-1.9,6.7-3.2,10.1-3.2c35.8,0,69.2,9.9,100.3,26.7c66.8,36.3,107.2,92.4,119,167.4
		c19.2,121.5-63.1,236-184.4,258.1C146.1,671.8,27.5,591,4.4,468.8c-11-58.1-0.8-113.3,24.8-165.9c27.6-56.7,69.2-101,121.5-135.7
		c3.3-2.2,4.6-4.4,4.7-8.3c1.6-52.5,27.7-90.1,71.8-116.4c28.6-17.1,60-26.8,92.6-33.1C366,0.1,412.7-1.7,459.6,1.4
		c32.9,2.2,65.6,6.4,97.2,16.7C558.7,18.8,560.5,19.5,563.3,20.5z"/>
	<path class="st0" d="M116.2,326.5c0,0.1,0,0.2,0,0.3c-0.2-0.1-0.4-0.1-0.5-0.2c0.1-0.1,0.2-0.2,0.3-0.3
		C116,326.3,116.1,326.4,116.2,326.5z"/>
</g>
</svg>
