<?xml version="1.0" encoding="utf-8"?>
<!-- Generator: Adobe Illustrator 23.0.2, SVG Export Plug-In . SVG Version: 6.00 Build 0)  -->
<svg version="1.1" id="Layer_1" xmlns="http://www.w3.org/2000/svg" xmlns:xlink="http://www.w3.org/1999/xlink" x="0px" y="0px"
	 viewBox="0 0 113.7 113.7" style="enable-background:new 0 0 113.7 113.7;" xml:space="preserve">
<style type="text/css">
	.st0{opacity:0.2;}
	.st1{fill:#0C0E14;}
</style>
<g id="Layer_4" class="st0">
</g>
<g>
	<g class="st0">
		<polygon class="st1" points="113.7,0 113.3,0 0,113.3 0,113.7 0.4,113.7 113.7,0.4 		"/>
		<polygon class="st1" points="113.7,6.1 113.7,5.3 5.5,113.5 5.3,113.7 6.1,113.7 		"/>
		<polygon class="st1" points="113.7,11.8 113.7,11 11.2,113.5 11,113.7 11.8,113.7 		"/>
		<polygon class="st1" points="113.7,17.5 113.7,16.6 16.9,113.5 16.6,113.7 17.5,113.7 		"/>
		<polygon class="st1" points="113.7,23.1 113.7,22.3 22.5,113.5 22.3,113.7 23.1,113.7 		"/>
		<polygon class="st1" points="113.7,28.8 113.7,28 28.2,113.5 28,113.7 28.8,113.7 		"/>
		<polygon class="st1" points="113.7,34.5 113.7,33.7 33.9,113.5 33.7,113.7 34.5,113.7 		"/>
		<polygon class="st1" points="113.7,40.2 113.7,39.4 39.6,113.5 39.4,113.7 40.2,113.7 		"/>
		<polygon class="st1" points="113.7,45.9 113.7,45.1 45.3,113.5 45.1,113.7 45.9,113.7 		"/>
		<polygon class="st1" points="113.7,51.5 113.7,50.8 50.8,113.7 51.5,113.7 		"/>
		<polygon class="st1" points="113.7,57.2 113.7,56.4 56.6,113.5 56.4,113.7 57.2,113.7 		"/>
		<polygon class="st1" points="113.7,62.9 113.7,62.1 62.3,113.5 62.1,113.7 62.9,113.7 		"/>
		<polygon class="st1" points="113.7,68.6 113.7,67.8 68,113.5 67.8,113.7 68.6,113.7 		"/>
		<polygon class="st1" points="113.7,74.3 113.7,73.5 73.7,113.5 73.5,113.7 74.3,113.7 		"/>
		<polygon class="st1" points="113.7,80 113.7,79.2 79.4,113.5 79.2,113.7 80,113.7 		"/>
		<polygon class="st1" points="113.7,85.7 113.7,84.8 85.1,113.5 84.8,113.7 85.7,113.7 		"/>
		<polygon class="st1" points="113.7,91.3 113.7,90.5 90.7,113.5 90.5,113.7 91.3,113.7 		"/>
		<polygon class="st1" points="113.7,97 113.7,96.2 96.4,113.5 96.2,113.7 97,113.7 		"/>
		<polygon class="st1" points="113.7,102.7 113.7,101.9 102.1,113.5 101.9,113.7 102.7,113.7 		"/>
		<polygon class="st1" points="113.7,108.4 113.7,107.6 107.8,113.5 107.6,113.7 108.4,113.7 		"/>
		<polygon class="st1" points="113.7,113.3 113.5,113.5 113.3,113.7 113.7,113.7 		"/>
		<polygon class="st1" points="45.9,0 45.9,0 45.1,0 0,45.1 0,45.9 		"/>
		<polygon class="st1" points="51.3,0.2 51.5,0 51.5,0 50.8,0 0,50.8 0,51.5 		"/>
		<polygon class="st1" points="57,0.2 57.2,0 57.2,0 56.4,0 0,56.4 0,57.2 		"/>
		<polygon class="st1" points="62.7,0.2 62.9,0 62.9,0 62.1,0 0,62.1 0,62.9 		"/>
		<polygon class="st1" points="68.4,0.2 68.6,0 68.6,0 67.8,0 0,67.8 0,68.6 		"/>
		<polygon class="st1" points="74.1,0.2 74.3,0 74.3,0 73.5,0 0,73.5 0,74.3 		"/>
		<polygon class="st1" points="79.8,0.2 80,0 80,0 79.2,0 0,79.2 0,80 		"/>
		<polygon class="st1" points="85.4,0.2 85.7,0 85.7,0 84.8,0 0,84.8 0,85.7 		"/>
		<polygon class="st1" points="91.1,0.2 91.3,0 91.3,0 90.5,0 0,90.5 0,91.3 		"/>
		<polygon class="st1" points="96.8,0.2 97,0 97,0 96.2,0 0,96.2 0,97 		"/>
		<polygon class="st1" points="102.5,0.2 102.7,0 102.7,0 101.9,0 0,101.9 0,102.7 		"/>
		<polygon class="st1" points="108.2,0.2 108.4,0 108.4,0 107.6,0 0,107.6 0,108.4 		"/>
		<polygon class="st1" points="0,0.4 0.2,0.2 0.4,0 0.4,0 0,0 		"/>
		<polygon class="st1" points="5.9,0.2 6.1,0 6.1,0 5.3,0 0,5.3 0,6.1 		"/>
		<polygon class="st1" points="11.6,0.2 11.8,0 11.8,0 11,0 0,11 0,11.8 		"/>
		<polygon class="st1" points="17.3,0.2 17.5,0 17.5,0 16.6,0 0,16.6 0,17.5 		"/>
		<polygon class="st1" points="22.9,0.2 23.1,0 23.1,0 22.3,0 0,22.3 0,23.1 		"/>
		<polygon class="st1" points="28.8,0 28.8,0 28,0 0,28 0,28.8 		"/>
		<polygon class="st1" points="34.3,0.2 34.5,0 34.5,0 33.7,0 0,33.7 0,34.5 		"/>
		<polygon class="st1" points="40,0.2 40.2,0 40.2,0 39.4,0 0,39.4 0,40.2 		"/>
	</g>
</g>
</svg>
