<?xml version="1.0" encoding="utf-8"?>
<svg xmlns="http://www.w3.org/2000/svg" version="1.1" viewBox="0 0 1449.27 349.33" xml:space="preserve">
  <path style="fill: currentColor;" d="M20.08,347.2c-7.2-1.42-13.9-3.43-20.08-6.01l11.24-35.28c7.75,2.33,14.22,3.49,19.39,3.49c12.92,0,19.39-7.24,19.39-21.71 V97.32l52.34-5.04V284.2c0,21.97-5.6,38.32-16.81,49.05c-11.2,10.72-26.2,16.09-44.99,16.09C34.12,349.33,27.29,348.62,20.08,347.2z M58.93,66.88c-5.17-2.97-9.31-6.91-12.41-11.83c-3.1-4.91-4.65-10.33-4.65-16.28c0-5.94,1.55-11.44,4.65-16.48c3.1-5.04,7.23-9.04,12.41-12.02C64.1,7.31,69.66,5.82,75.6,5.82c6.2,0,11.95,1.49,17.25,4.46c5.29,2.97,9.5,6.98,12.6,12.02c3.1,5.04,4.65,10.54,4.65,16.48c0,5.95-1.55,11.38-4.65,16.28c-3.1,4.91-7.31,8.86-12.6,11.83c-5.3,2.97-11.05,4.46-17.25,4.46C69.66,71.34,64.1,69.86,58.93,66.88z"/>
  <path style="fill: currentColor;" d="M278.96,104.88c11.5,8.92,17.25,23.59,17.25,44.01v122.91h-44.62l-4.23-13.57c-9.6,6.98-19.13,11.89-28.59,14.73c-9.47,2.84-19.39,4.26-29.76,4.26c-10.89,0-20.49-2.07-28.79-6.2c-8.3-4.13-14.72-9.89-19.26-17.25c-4.54-7.37-6.81-15.83-6.81-25.39c0-20.42,10.11-35.99,30.34-46.72c20.23-10.72,46.69-16.73,79.38-18.03v-4.26c0-7.23-0.71-12.92-2.14-17.06c-1.43-4.13-3.96-7.17-7.59-9.11c-3.64-1.94-8.69-2.91-15.18-2.91c-16.34,0-34.9,6.59-55.66,19.77l-20.24-31.79c13.96-9.04,27.59-15.76,40.9-20.16c13.31-4.39,27.85-6.59,43.62-6.59C250.33,91.5,267.46,95.96,278.96,104.88z M193.54,234.76c3.4,2.97,8.38,4.46,14.94,4.46c10.75,0,22.55-3.49,35.39-10.47v-33.73c-19.14,1.04-33.16,4.01-42.07,8.92c-8.92,4.91-13.37,10.86-13.37,17.83C188.43,227.46,190.13,231.79,193.54,234.76z"/>
  <path style="fill: currentColor;" d="M480.38,97.32v23.26l-81.42,107.4h80.26v43.81h-154.7v-24.04l82.2-106.62h-76.38l5.82-43.81H480.38z"/>
  <path style="fill: currentColor;" d="M662.6,195.8H550.94c1.55,14.48,6.33,25.14,14.35,31.99c8.01,6.85,17.57,10.27,28.69,10.27c8.27,0,16.28-1.16,24.04-3.49s16.02-6.07,24.81-11.24l17.83,31.79c-9.31,6.98-20.03,12.41-32.18,16.28c-12.15,3.88-25.33,5.82-39.55,5.82c-17.06,0-32.37-3.1-45.94-9.3c-13.57-6.2-24.43-16.09-32.57-29.66c-8.14-13.57-12.21-31.08-12.21-52.54c0-19.64,3.42-36.57,10.27-50.79c6.85-14.21,16.8-25.01,29.85-32.37c13.05-7.37,28.5-11.05,46.33-11.05c17.06,0,31.6,3.36,43.62,10.08c12.02,6.72,21,15.9,26.95,27.53c5.94,11.63,8.92,24.81,8.92,39.55C664.15,173.83,663.63,182.88,662.6,195.8z M563.5,135.51c-5.35,5.56-9.02,14.29-11.01,26.17h59.32v-1.16c0-11.89-2.49-20.42-7.46-25.59c-4.97-5.17-11.56-7.75-19.77-7.75C575.87,127.17,568.84,129.95,563.5,135.51z"/>
  <path style="fill: currentColor;" d="M854.91,97.32v2.71l-64.36,171.76h-53.12l-66.3-171.76v-2.71h55.83l29.85,92.66c3.62,11.89,6.33,22.1,8.14,30.63c0.51-2.07,1.42-6.2,2.71-12.41c1.29-6.2,2.71-12.27,4.27-18.22l24.81-92.66H854.91z"/>
  <path style="fill: currentColor;" d="M1026.28,195.8H914.61c1.55,14.48,6.33,25.14,14.35,31.99c8.01,6.85,17.57,10.27,28.69,10.27c8.27,0,16.28-1.16,24.04-3.49c7.75-2.33,16.02-6.07,24.81-11.24l17.83,31.79c-9.31,6.98-20.03,12.41-32.18,16.28c-12.15,3.88-25.33,5.82-39.55,5.82c-17.06,0-32.37-3.1-45.94-9.3c-13.57-6.2-24.43-16.09-32.57-29.66c-8.14-13.57-12.21-31.08-12.21-52.54c0-19.64,3.42-36.57,10.27-50.79c6.85-14.21,16.8-25.01,29.85-32.37c13.05-7.37,28.5-11.05,46.33-11.05c17.06,0,31.6,3.36,43.62,10.08c12.02,6.72,21,15.9,26.95,27.53c5.94,11.63,8.92,24.81,8.92,39.55C1027.83,173.83,1027.31,182.88,1026.28,195.8z M927.17,135.51c-5.35,5.56-9.02,14.29-11.01,26.17h59.32v-1.16c0-11.89-2.49-20.42-7.46-25.59c-4.97-5.17-11.57-7.75-19.77-7.75C939.54,127.17,932.52,129.95,927.17,135.51z"/>
  <path style="fill: currentColor;" d="M1227.11,0v271.79h-44.62l-3.85-12.02c-17.11,11.63-34.74,17.45-52.89,17.45c-24.11,0-42.33-7.56-54.64-22.68c-12.32-15.12-18.47-37.15-18.47-66.11c0-22.74,4.4-41.35,13.22-55.83c8.81-14.47,20.16-24.94,34.03-31.41c13.87-6.46,28.59-9.69,44.15-9.69c9.59,0,19.83,1.42,30.73,4.27V5.04L1227.11,0z M1115.1,225.65c5.46,8.02,13.65,12.02,24.57,12.02c5.97,0,11.83-0.9,17.54-2.71c5.72-1.81,11.57-4.52,17.55-8.14v-95.38c-8.06-1.81-15.6-2.71-22.62-2.71c-13.78,0-24.77,5.11-32.96,15.31c-8.19,10.21-12.28,24.88-12.28,44.01C1106.92,205.1,1109.64,217.64,1115.1,225.65z"/>
  <path style="fill: currentColor;" d="M1303.87,263.07c-13.7-9.43-24.3-23.91-31.79-43.42c-7.5-19.51-11.24-44.01-11.24-73.47c0-33.6,4.78-60.1,14.34-79.48c9.56-19.39,21.58-32.82,36.06-40.32c14.47-7.49,29.85-11.24,46.14-11.24c28.95,0,51.5,10.53,67.66,31.6c16.15,21.07,24.23,54.47,24.23,100.23c0,48.6-9.37,82.46-28.11,101.58c-18.74,19.13-41.55,28.69-68.43,28.69C1333.85,277.22,1317.57,272.5,1303.87,263.07z M1375.96,222.55c5.76-5.43,10.04-14.28,12.86-26.56c2.81-12.27,4.22-28.88,4.22-49.82c0-28.43-2.82-49.63-8.44-63.59c-5.63-13.96-15.1-20.94-28.4-20.94c-8.95,0-16.31,2.78-22.07,8.34c-5.75,5.56-10.04,14.61-12.85,27.14c-2.82,12.54-4.22,29.15-4.22,49.82c0,28.44,2.81,49.5,8.44,63.2c5.63,13.7,15.1,20.55,28.4,20.55C1362.85,230.69,1370.21,227.98,1375.96,222.55z"/>
</svg>
