<?xml version="1.0" encoding="utf-8"?>
<!-- Generator: Adobe Illustrator 23.0.2, SVG Export Plug-In . SVG Version: 6.00 Build 0)  -->
<svg version="1.1" id="Layer_1" xmlns="http://www.w3.org/2000/svg" xmlns:xlink="http://www.w3.org/1999/xlink" x="0px" y="0px"
	 viewBox="0 0 2440.3 682.8" style="enable-background:new 0 0 2440.3 682.8;" xml:space="preserve">
<style type="text/css">
	.st0{fill:#2F3B56;}
	.st1{fill:url(#SVGID_1_);}
	.st2{fill:url(#SVGID_2_);}
	.st3{fill:url(#SVGID_3_);}
	.st4{fill:url(#SVGID_4_);}
</style>
<path class="st0" d="M786.1,674.9c9.9,8.5,24,10.3,35.7,4.4L2180.5,0H0L786.1,674.9z"/>
<g>
	<linearGradient id="SVGID_1_" gradientUnits="userSpaceOnUse" x1="106.5275" y1="183.4705" x2="488.1954" y2="-36.8855">
		<stop  offset="0" style="stop-color:#FFFFFF;stop-opacity:3.000000e-02"/>
		<stop  offset="1" style="stop-color:#FFFFFF;stop-opacity:1.000000e-02"/>
	</linearGradient>
	<polygon class="st1" points="339.8,292 261,224.5 1.2,1 509.5,0 	"/>
</g>
<g>
	<linearGradient id="SVGID_2_" gradientUnits="userSpaceOnUse" x1="877.7294" y1="22.1681" x2="579.5043" y2="538.7092">
		<stop  offset="0" style="stop-color:#FFFFFF;stop-opacity:1.000000e-02"/>
		<stop  offset="1" style="stop-color:#FFFFFF;stop-opacity:3.000000e-02"/>
	</linearGradient>
	<polygon class="st2" points="914,297.5 728.8,191.3 839.3,0 695.4,0 464.8,399.3 561,481.8 561.1,481.6 725.7,623.1 	"/>
</g>
<g>
	<linearGradient id="SVGID_3_" gradientUnits="userSpaceOnUse" x1="814.7714" y1="42.45" x2="1507.4941" y2="442.3937">
		<stop  offset="0" style="stop-color:#FFFFFF;stop-opacity:1.000000e-02"/>
		<stop  offset="1" style="stop-color:#FFFFFF;stop-opacity:3.000000e-02"/>
	</linearGradient>
	<polygon class="st3" points="729,191.5 839,0.5 1085.3,0 1593.4,293.5 1224.8,477.8 	"/>
</g>
<g>
	<linearGradient id="SVGID_4_" gradientUnits="userSpaceOnUse" x1="1544.4563" y1="265.4783" x2="1735.0718" y2="-64.6773">
		<stop  offset="0" style="stop-color:#FFFFFF;stop-opacity:1.000000e-02"/>
		<stop  offset="1" style="stop-color:#FFFFFF;stop-opacity:3.000000e-02"/>
	</linearGradient>
	<polygon class="st4" points="1593,293.5 1711.7,234.4 1847.1,0 1548.4,0 1432.6,200.6 	"/>
</g>
</svg>
