<?xml version="1.0" encoding="utf-8"?>
<!-- Generator: Adobe Illustrator 23.0.3, SVG Export Plug-In . SVG Version: 6.00 Build 0)  -->
<svg version="1.1" id="Layer_1" xmlns="http://www.w3.org/2000/svg" xmlns:xlink="http://www.w3.org/1999/xlink" x="0px" y="0px"
	 viewBox="0 0 1009.3 200" style="enable-background:new 0 0 1009.3 200;" xml:space="preserve">
<style type="text/css">
	.st0{fill:#F7F8F8;}
</style>
<g>
	<path class="st0" d="M75.2,153.1l-4.6-15h-0.8c-5.2,6.6-10.4,11.1-15.7,13.4s-12,3.6-20.3,3.6c-10.6,0-18.9-2.9-24.9-8.6
		C3,140.8,0,132.6,0,122.2C0,111,4.1,102.6,12.4,97c8.3-5.7,20.9-8.8,37.8-9.3l18.7-0.6v-5.8c0-6.9-1.6-12.1-4.8-15.5
		s-8.2-5.1-15-5.1c-5.5,0-10.8,0.8-15.9,2.4c-5.1,1.6-10,3.5-14.6,5.8L11,52.5c5.9-3.1,12.3-5.4,19.2-7c7-1.6,13.5-2.4,19.7-2.4
		c13.7,0,24.1,3,31.1,9c7,6,10.5,15.4,10.5,28.2v72.8H75.2z M41,137.5c8.3,0,15-2.3,20.1-7c5-4.7,7.6-11.2,7.6-19.6v-9.4l-13.9,0.6
		c-10.8,0.4-18.7,2.2-23.6,5.4c-4.9,3.2-7.4,8.2-7.4,14.8c0,4.8,1.4,8.5,4.3,11.2C31,136.2,35.3,137.5,41,137.5z"/>
	<path class="st0" d="M147.7,97.9l-36.2-52.8h26.2l24.6,37.8L187,45.1h26l-36.3,52.8l38.2,55.2h-26l-26.7-40.4l-26.6,40.4h-26
		L147.7,97.9z"/>
	<path class="st0" d="M232.4,16.5c0-4.1,1.1-7.3,3.4-9.5c2.2-2.2,5.5-3.3,9.6-3.3c4,0,7.2,1.1,9.4,3.3c2.2,2.2,3.4,5.4,3.4,9.5
		c0,3.9-1.1,7-3.4,9.2s-5.4,3.4-9.4,3.4c-4.2,0-7.4-1.1-9.6-3.4S232.4,20.4,232.4,16.5z M256.7,153.1h-22.9v-108h22.9V153.1z"/>
	<path class="st0" d="M362.1,122.4c0,10.5-3.8,18.6-11.5,24.3c-7.7,5.6-18.7,8.4-33,8.4c-14.4,0-25.9-2.2-34.7-6.5v-19.8
		c12.7,5.9,24.5,8.8,35.4,8.8c14.1,0,21.2-4.3,21.2-12.8c0-2.7-0.8-5-2.3-6.8c-1.6-1.8-4.1-3.7-7.7-5.7c-3.6-2-8.6-4.2-14.9-6.6
		c-12.4-4.8-20.8-9.6-25.2-14.5c-4.4-4.8-6.6-11.1-6.6-18.8c0-9.2,3.7-16.4,11.2-21.5c7.5-5.1,17.6-7.7,30.4-7.7
		c12.7,0,24.7,2.6,36,7.7l-7.4,17.3c-11.7-4.8-21.5-7.2-29.4-7.2c-12.1,0-18.2,3.5-18.2,10.4c0,3.4,1.6,6.3,4.7,8.6
		c3.2,2.3,10,5.6,20.7,9.7c8.9,3.5,15.4,6.6,19.4,9.5c4,2.9,7,6.2,9,9.9C361.1,112.7,362.1,117.2,362.1,122.4z"/>
</g>
<g>
	<path class="st0" d="M432.4,42c4.6,0,8.4,0.3,11.4,1l-2.2,21.4c-3.3-0.8-6.6-1.2-10.2-1.2c-9.2,0-16.6,3-22.3,9
		c-5.7,6-8.5,13.8-8.5,23.3V152h-22.9v-108h18l3,19h1.2c3.6-6.4,8.3-11.6,14-15.3C419.6,43.9,425.8,42,432.4,42z"/>
</g>
<g>
	<path class="st0" d="M636.4,153.9c-13.7,0-24.3-4.9-31.8-14.7h-1.4c0.9,9.1,1.4,14.6,1.4,16.6V200h-22.9V43.9h18.6
		c0.5,2,1.6,6.8,3.2,14.5h1.2c7.2-10.9,17.9-16.4,32.2-16.4c13.5,0,24,4.9,31.5,14.6s11.3,23.5,11.3,41.1c0,17.6-3.8,31.4-11.5,41.3
		C660.4,149,649.9,153.9,636.4,153.9z M630.8,60.7c-9.1,0-15.8,2.7-20,8c-4.2,5.3-6.3,13.9-6.3,25.6v3.4c0,13.2,2.1,22.7,6.3,28.6
		c4.2,5.9,11,8.8,20.4,8.8c7.9,0,14.1-3.3,18.4-9.8c4.3-6.5,6.4-15.8,6.4-27.8c0-12.1-2.1-21.3-6.4-27.5
		C645.4,63.9,639.1,60.7,630.8,60.7z"/>
	<path class="st0" d="M729.2,152h-22.9V0h22.9V152z"/>
	<path class="st0" d="M829.6,152l-4.6-15h-0.8c-5.2,6.6-10.4,11.1-15.7,13.4s-12,3.6-20.3,3.6c-10.6,0-18.9-2.9-24.9-8.6
		c-6-5.7-8.9-13.8-8.9-24.3c0-11.1,4.1-19.5,12.4-25.2c8.3-5.7,20.9-8.8,37.8-9.3l18.7-0.6v-5.8c0-6.9-1.6-12.1-4.8-15.5
		s-8.2-5.1-15-5.1c-5.5,0-10.8,0.8-15.9,2.4c-5.1,1.6-10,3.5-14.6,5.8l-7.4-16.4c5.9-3.1,12.3-5.4,19.2-7c7-1.6,13.5-2.4,19.7-2.4
		c13.7,0,24.1,3,31.1,9c7,6,10.5,15.4,10.5,28.2V152H829.6z M795.4,136.3c8.3,0,15-2.3,20.1-7c5-4.7,7.6-11.2,7.6-19.6v-9.4
		l-13.9,0.6c-10.8,0.4-18.7,2.2-23.6,5.4c-4.9,3.2-7.4,8.2-7.4,14.8c0,4.8,1.4,8.5,4.3,11.2C785.4,135,789.7,136.3,795.4,136.3z"/>
	<path class="st0" d="M861.6,43.9h25l22,61.2c3.3,8.7,5.5,16.9,6.6,24.6h0.8c0.6-3.6,1.7-7.9,3.2-13c1.6-5.1,9.8-29.4,24.8-72.8
		h24.8l-46.2,122.4c-8.4,22.5-22.4,33.7-42,33.7c-5.1,0-10-0.6-14.8-1.7v-18.2c3.5,0.8,7.4,1.2,11.8,1.2c11.1,0,18.8-6.4,23.3-19.2
		l4-10.2L861.6,43.9z"/>
</g>
<path class="st0" d="M447.2,101.5c1.6,30.1,26.5,54.5,56.6,55.4c12.6,0.4,24.4-3.3,34.1-9.8c0.6-0.4,1.5-0.3,2,0.4l3.8,5.5
	c0.6,0.9,1.9,0.7,2.3-0.3l5.4-15l5.6-15.7c0.3-0.8-0.3-1.7-1.2-1.7l-16.6-0.1l-16-0.1c-1,0-1.7,1.2-1.1,2l4.3,6.1
	c0.5,0.7,0.3,1.6-0.4,2c-6.2,4-13.6,6.2-21.6,6c-19.6-0.6-35.9-16.7-36.6-36.3c-0.8-21.5,16.4-39.3,37.8-39.3
	c17.3,0,31.8,11.6,36.3,27.4h-31.7c-0.8,0-1.4-0.6-1.4-1.4v-7.3c0-1-1.2-1.7-2-1.1l-13,9.2l-13.6,9.6c-0.7,0.5-0.7,1.6,0,2.1
	l13.6,9.6l13,9.2c0.9,0.6,2,0,2-1.1v-6.4c0-0.8,0.6-1.4,1.4-1.4h41.5c3.6,0,7.2,0.1,10.2,0.1c0.7,0,1.3-0.5,1.4-1.2
	c0.5-3.1,0.8-6.3,0.8-9.6c0-32.3-26.3-58.5-58.5-58.5C472.4,39.8,445.5,67.8,447.2,101.5z"/>
<g>
	<path class="st0" d="M974.1,29.6c0-3.1,0.8-6.1,2.3-8.8s3.7-4.9,6.4-6.5s5.7-2.4,8.8-2.4c3.1,0,6.1,0.8,8.8,2.3s4.9,3.7,6.5,6.4
		s2.4,5.7,2.4,8.8c0,3.1-0.8,6-2.3,8.7s-3.6,4.9-6.4,6.5s-5.7,2.4-9,2.4c-3.2,0-6.2-0.8-9-2.4s-4.9-3.8-6.4-6.5
		S974.1,32.7,974.1,29.6z M976.9,29.6c0,2.7,0.7,5.1,2,7.4s3.1,4.1,5.4,5.4s4.7,2,7.4,2c2.7,0,5.1-0.7,7.4-2s4.1-3.1,5.4-5.4
		s2-4.7,2-7.3c0-2.6-0.7-5.1-2-7.4s-3.1-4.1-5.4-5.4s-4.7-2-7.3-2c-2.6,0-5.1,0.6-7.3,1.9s-4.1,3.1-5.4,5.4S976.9,27,976.9,29.6z
		 M998.8,25.5c0,2.7-1.2,4.5-3.6,5.5l5.6,9.3h-4.9l-4.5-8.1h-2.1v8.1h-4.4V19.1h6.1c2.7,0,4.7,0.5,6,1.6S998.8,23.3,998.8,25.5z
		 M989.2,28.7h1.6c1.2,0,2-0.3,2.6-0.8s0.9-1.3,0.9-2.3c0-1.1-0.3-1.9-0.9-2.4s-1.5-0.7-2.7-0.7h-1.6V28.7z"/>
</g>
</svg>
