<?xml version="1.0" encoding="utf-8"?>
<!-- Generator: Adobe Illustrator 23.0.3, SVG Export Plug-In . SVG Version: 6.00 Build 0)  -->
<svg version="1.1" id="Layer_1" xmlns="http://www.w3.org/2000/svg" xmlns:xlink="http://www.w3.org/1999/xlink" x="0px" y="0px"
	 viewBox="0 0 117 117.1" style="enable-background:new 0 0 117 117.1;" xml:space="preserve">
<style type="text/css">
	.st0{fill:#F7F8F8;}
</style>
<path class="st0" d="M0.1,61.7c1.6,30.1,26.5,54.5,56.6,55.4c12.6,0.4,24.4-3.3,34.1-9.8c0.6-0.4,1.5-0.3,2,0.4l3.8,5.5
	c0.6,0.9,1.9,0.7,2.3-0.3l5.4-15l5.6-15.7c0.3-0.8-0.3-1.7-1.2-1.7l-16.6-0.1l-16-0.1c-1,0-1.7,1.2-1.1,2l4.3,6.1
	c0.5,0.7,0.3,1.6-0.4,2c-6.2,4-13.6,6.2-21.6,6c-19.6-0.6-35.9-16.7-36.6-36.3c-0.8-21.5,16.4-39.3,37.8-39.3
	c17.3,0,31.8,11.6,36.3,27.4H63.1c-0.8,0-1.4-0.6-1.4-1.4v-7.3c0-1-1.2-1.7-2-1.1l-13,9.2l-13.6,9.6c-0.7,0.5-0.7,1.6,0,2.1
	l13.6,9.6l13,9.2c0.9,0.6,2,0,2-1.1v-6.4c0-0.8,0.6-1.4,1.4-1.4h41.5c3.6,0,7.2,0.1,10.2,0.1c0.7,0,1.3-0.5,1.4-1.2
	c0.5-3.1,0.8-6.3,0.8-9.6C117,26.2,90.7,0,58.5,0C25.3,0-1.6,28,0.1,61.7z"/>
</svg>
