<?xml version="1.0" encoding="utf-8"?>
<!-- Generator: Adobe Illustrator 23.0.3, SVG Export Plug-In . SVG Version: 6.00 Build 0)  -->
<svg version="1.1" id="Layer_1" xmlns="http://www.w3.org/2000/svg" xmlns:xlink="http://www.w3.org/1999/xlink" x="0px" y="0px"
	 viewBox="0 0 1295 394.2" style="enable-background:new 0 0 1295 394.2;" xml:space="preserve">
<style type="text/css">
	.st0{fill:none;stroke:#F7F8F8;stroke-width:18;stroke-miterlimit:10;}
	.st1{fill:#F7F8F8;}
</style>
<rect x="9" y="9" class="st0" width="357.8" height="357.8"/>
<path class="st1" d="M109.9,122.8H74.6c-1.6,0-3,1.4-3,3v163.4c0,1.6,1.4,3,3,3h35.3c1.6,0,3-1.4,3-3V125.8
	C112.9,124.1,111.5,122.8,109.9,122.8z"/>
<path class="st1" d="M109.9,111.1H74.6c-1.6,0-3-1.3-3-3V91.9c0-1.6,1.4-3,3-3h35.3c1.6,0,3,1.4,3,3v16.2
	C112.9,109.8,111.5,111.1,109.9,111.1z"/>
<path class="st1" d="M177.6,145h-49.1c-1.7,0-3,1.3-3,3v147.5c0,1.6,1.3,3,3,3h49.1c1.6,0,3-1.4,3-3V148
	C180.6,146.3,179.3,145,177.6,145z"/>
<path class="st1" d="M177.6,135.4h-49.1c-1.7,0-3-1.3-3-3v-24.7c0-1.6,1.3-3,3-3h49.1c1.6,0,3,1.4,3,3v24.7
	C180.6,134.2,179.3,135.4,177.6,135.4z"/>
<path class="st1" d="M193.6,105.9l36.3-1c1.6-0.1,3.1,1.3,3.1,2.9l5.3,185.5c0.1,1.6-1.3,3.1-2.9,3.1l-36.3,1.1
	c-1.7,0.1-3.1-1.3-3.1-2.9L190.6,109C190.6,107.3,191.9,105.9,193.6,105.9z"/>
<path class="st1" d="M228.9,69.9l-36.3,1.1c-1.7,0.1-3,1.4-2.9,3.1l0.5,17.3c0.1,1.7,1.4,3,3.1,2.9l36.3-1.1c1.7-0.1,3-1.4,2.9-3.1
	L232,72.8C231.9,71.2,230.6,69.9,228.9,69.9z"/>
<path class="st1" d="M283.5,133.8l-34.9,4.1c-1.7,0.2-2.9,1.7-2.7,3.4l18.1,151.6c0.2,1.6,1.7,2.9,3.4,2.7l34.9-4.1
	c1.6-0.2,2.9-1.7,2.7-3.4l-18.1-151.6C286.6,134.9,285.1,133.6,283.5,133.8z"/>
<path class="st1" d="M279.1,97.1l-34.9,4.2c-1.6,0.2-2.8,1.7-2.6,3.4l2.2,18.1c0.2,1.7,1.7,2.9,3.4,2.6l34.9-4.2
	c1.7-0.2,2.9-1.7,2.6-3.4l-2.2-18.1C282.3,98,280.8,96.8,279.1,97.1z"/>
<g>
	<path class="st1" d="M483.6,174.5V33.8h22.2v121.1h75.5v19.6H483.6z"/>
	<path class="st1" d="M596.6,53.8v-24h21.8v24H596.6z M596.6,174.5V70.9h21.8v103.7H596.6z"/>
	<path class="st1" d="M700.4,176.5c-7.9,0-15.1-1.9-21.5-5.6c-6.4-3.8-11.5-8.8-15.2-15.2v18.8h-19.2V29.8h21.8v60.6
		c4.1-6.6,9.2-11.8,15.4-15.7c6.1-3.8,13.4-5.7,21.7-5.7c6.9,0,13.1,1.5,18.8,4.5c5.7,3,10.5,6.9,14.6,11.9c4,5,7.1,10.7,9.3,17.2
		c2.2,6.5,3.3,13.4,3.3,20.5c0,7.4-1.3,14.3-3.8,20.8c-2.5,6.5-5.9,12.1-10.3,16.9c-4.4,4.8-9.5,8.6-15.6,11.4
		C713.8,175.1,707.3,176.5,700.4,176.5z M694.7,157.9c4.8,0,9.1-1,13.1-2.9c4-1.9,7.4-4.5,10.2-7.6c2.8-3.2,5.1-6.8,6.6-11
		c1.6-4.2,2.4-8.6,2.4-13.2c0-4.6-0.8-9.1-2.3-13.4c-1.5-4.3-3.6-8.1-6.3-11.3c-2.7-3.2-5.9-5.8-9.7-7.8c-3.8-2-7.9-3-12.4-3
		c-6.7,0-12.7,2.2-17.9,6.5c-5.2,4.4-9.2,9.6-12,15.9v27.4c0.8,3,2.2,5.8,4.2,8.2c2,2.4,4.3,4.6,6.9,6.4c2.6,1.9,5.5,3.3,8.5,4.3
		C689,157.4,691.9,157.9,694.7,157.9z"/>
	<path class="st1" d="M827.3,89.7c-8.5,0.3-16,2.2-22.5,5.8c-6.5,3.6-11.2,8.8-14,15.6v63.4H769V70.9h20.2V94
		c3.6-7.1,8.2-12.8,14-17.1c5.7-4.3,11.9-6.6,18.5-7c1.3,0,2.4,0,3.3,0c0.9,0,1.6,0.1,2.3,0.2V89.7z"/>
	<path class="st1" d="M869.3,176.5c-5,0-9.7-0.8-14-2.5c-4.3-1.7-8-3.9-11.1-6.8c-3.1-2.9-5.5-6.3-7.3-10.3s-2.7-8.3-2.7-12.9
		c0-4.9,1.1-9.3,3.2-13.3c2.1-4,5.1-7.4,9-10.3c3.9-2.9,8.5-5.2,13.9-6.7c5.4-1.6,11.3-2.4,17.7-2.4c4.9,0,9.7,0.4,14.5,1.3
		c4.8,0.9,9,2,12.9,3.5v-7.1c0-7.7-2.2-13.6-6.5-17.9c-4.4-4.3-10.6-6.4-18.8-6.4c-5.5,0-11,1-16.4,3.1c-5.4,2.1-10.9,5-16.5,8.8
		l-6.7-13.9c13.3-9,27.2-13.5,41.6-13.5c14.3,0,25.4,3.6,33.3,10.9c7.9,7.3,11.9,17.7,11.9,31.3v37.5c0,4.6,1.9,7,5.7,7.1v18.6
		c-2.1,0.4-3.9,0.7-5.5,0.8c-1.5,0.1-3,0.2-4.5,0.2c-4.2,0-7.5-1.1-9.8-3.2c-2.3-2.1-3.7-4.8-4.3-8.1l-0.6-6.5
		c-4.6,6.1-10.3,10.7-17.1,14C884.4,174.9,877.1,176.5,869.3,176.5z M875.3,160.4c5.3,0,10.3-1,15-2.9c4.7-1.9,8.4-4.6,11-8
		c2.8-2.4,4.2-4.9,4.2-7.5v-13.7c-3.7-1.5-7.6-2.6-11.8-3.4c-4.2-0.8-8.2-1.2-12.2-1.2c-7.8,0-14.2,1.7-19.1,5.1
		c-5,3.4-7.4,7.8-7.4,13.4c0,5.2,1.9,9.5,5.7,13C864.4,158.7,869.3,160.4,875.3,160.4z"/>
	<path class="st1" d="M1011.8,89.7c-8.5,0.3-16,2.2-22.5,5.8c-6.5,3.6-11.2,8.8-14,15.6v63.4h-21.8V70.9h20.2V94
		c3.6-7.1,8.2-12.8,14-17.1c5.7-4.3,11.9-6.6,18.5-7c1.3,0,2.4,0,3.3,0c0.9,0,1.6,0.1,2.3,0.2V89.7z"/>
	<path class="st1" d="M1031.2,198.9c2,0.4,3.9,0.7,5.8,1c1.9,0.3,3.5,0.4,4.7,0.4c1.7,0,3.2-0.4,4.5-1.1c1.3-0.7,2.5-2,3.9-3.9
		c1.3-1.9,2.7-4.5,4.1-7.8c1.4-3.4,3-7.7,4.9-13l-42.6-103.7h22.4l32.1,84.4l28.5-84.4h20.6l-47,127.6c-2.1,5.9-5.8,10.9-11,15
		c-5.2,4-11.9,6-20.1,6c-1.6,0-3.2-0.1-5-0.3c-1.7-0.2-3.6-0.6-5.7-1.3V198.9z"/>
	<path class="st1" d="M601.9,350V248.7l-41.8,76.7h-12.3l-42-76.7V350h-22.2V209.2h23.8l46.6,86l46.6-86h23.8V350H601.9z"/>
	<path class="st1" d="M679.8,351.9c-5,0-9.7-0.8-14-2.5c-4.3-1.7-8-3.9-11.1-6.8c-3.1-2.9-5.5-6.3-7.3-10.3c-1.8-4-2.7-8.3-2.7-12.9
		c0-4.9,1.1-9.3,3.2-13.3c2.1-4,5.1-7.4,9-10.3c3.9-2.9,8.5-5.2,13.9-6.7c5.4-1.6,11.3-2.4,17.7-2.4c4.9,0,9.7,0.4,14.5,1.3
		c4.8,0.9,9,2,12.9,3.5v-7.1c0-7.7-2.2-13.6-6.5-17.9c-4.4-4.3-10.6-6.4-18.8-6.4c-5.5,0-11,1-16.4,3.1c-5.4,2.1-10.9,5-16.5,8.8
		l-6.7-13.9c13.3-9,27.2-13.5,41.6-13.5c14.3,0,25.4,3.6,33.3,10.9c7.9,7.3,11.9,17.7,11.9,31.3v37.5c0,4.6,1.9,7,5.7,7.1V350
		c-2.1,0.4-3.9,0.7-5.5,0.8c-1.5,0.1-3,0.2-4.5,0.2c-4.2,0-7.5-1.1-9.8-3.2c-2.3-2.1-3.7-4.8-4.3-8.1l-0.6-6.5
		c-4.6,6.1-10.3,10.7-17.1,14C694.9,350.3,687.6,351.9,679.8,351.9z M685.8,335.9c5.3,0,10.3-1,15-2.9c4.7-1.9,8.4-4.6,11-8
		c2.8-2.4,4.2-4.9,4.2-7.5v-13.7c-3.7-1.5-7.6-2.6-11.8-3.4c-4.2-0.8-8.2-1.2-12.2-1.2c-7.8,0-14.2,1.7-19.1,5.1
		c-5,3.4-7.4,7.8-7.4,13.4c0,5.2,1.9,9.5,5.7,13C674.9,334.1,679.8,335.9,685.8,335.9z"/>
	<path class="st1" d="M857,350h-21.8v-58.1c0-9.8-1.6-16.9-4.7-21.3c-3.1-4.4-7.7-6.6-13.8-6.6c-3.2,0-6.3,0.6-9.5,1.8
		c-3.2,1.2-6.1,2.9-8.9,5.1c-2.8,2.2-5.3,4.8-7.4,7.7c-2.2,3-3.9,6.2-5.1,9.8V350h-21.8V246.3h19.8v20.8c4-7,9.7-12.5,17.2-16.5
		c7.5-4,15.9-6,25-6c6.2,0,11.3,1.1,15.3,3.4c4,2.2,7.1,5.3,9.4,9.2c2.3,3.9,3.9,8.4,4.9,13.5c0.9,5.1,1.4,10.5,1.4,16.2V350z"/>
	<path class="st1" d="M909.9,351.9c-5,0-9.7-0.8-14-2.5c-4.3-1.7-8-3.9-11.1-6.8c-3.1-2.9-5.5-6.3-7.3-10.3c-1.8-4-2.7-8.3-2.7-12.9
		c0-4.9,1.1-9.3,3.2-13.3c2.1-4,5.1-7.4,9-10.3c3.9-2.9,8.5-5.2,13.9-6.7c5.4-1.6,11.3-2.4,17.7-2.4c4.9,0,9.7,0.4,14.5,1.3
		c4.8,0.9,9,2,12.9,3.5v-7.1c0-7.7-2.2-13.6-6.5-17.9c-4.4-4.3-10.6-6.4-18.8-6.4c-5.5,0-11,1-16.4,3.1c-5.4,2.1-10.9,5-16.5,8.8
		L881,258c13.3-9,27.2-13.5,41.6-13.5c14.3,0,25.4,3.6,33.3,10.9c7.9,7.3,11.9,17.7,11.9,31.3v37.5c0,4.6,1.9,7,5.7,7.1V350
		c-2.1,0.4-3.9,0.7-5.5,0.8c-1.5,0.1-3,0.2-4.5,0.2c-4.2,0-7.5-1.1-9.8-3.2c-2.3-2.1-3.7-4.8-4.3-8.1l-0.6-6.5
		c-4.6,6.1-10.3,10.7-17.1,14C925,350.3,917.7,351.9,909.9,351.9z M915.9,335.9c5.3,0,10.3-1,15-2.9c4.7-1.9,8.4-4.6,11-8
		c2.8-2.4,4.2-4.9,4.2-7.5v-13.7c-3.7-1.5-7.6-2.6-11.8-3.4c-4.2-0.8-8.2-1.2-12.2-1.2c-7.8,0-14.2,1.7-19.1,5.1
		c-5,3.4-7.4,7.8-7.4,13.4c0,5.2,1.9,9.5,5.7,13C905,334.1,909.9,335.9,915.9,335.9z"/>
	<path class="st1" d="M1035.2,351c-7,0-13.4-1.4-19.2-4.3c-5.8-2.8-10.8-6.7-15-11.6c-4.2-4.9-7.4-10.5-9.7-16.8
		c-2.3-6.3-3.5-13-3.5-20c0-7.4,1.2-14.4,3.6-20.9c2.4-6.5,5.7-12.2,9.9-17c4.2-4.8,9.3-8.7,15.2-11.5c5.9-2.8,12.4-4.3,19.5-4.3
		c8.3,0,15.6,2,21.9,5.9c6.3,4,11.5,9.1,15.6,15.5v-19.6h19.2V347c0,7.5-1.4,14.2-4.2,20c-2.8,5.8-6.6,10.7-11.6,14.8
		c-5,4-10.8,7.1-17.5,9.2c-6.7,2.1-14,3.2-21.8,3.2c-11.5,0-21-2-28.6-5.8c-7.6-3.9-14-9.3-19.1-16.4l12.3-11.5
		c4,5.5,9.1,9.8,15.4,12.7c6.3,2.9,13,4.4,20.1,4.4c4.5,0,8.8-0.6,12.8-1.8c4-1.2,7.6-3,10.6-5.5c3-2.5,5.5-5.7,7.2-9.5
		c1.8-3.8,2.7-8.4,2.7-13.7v-15.9c-3.7,6.3-8.8,11.2-15.3,14.7C1049.1,349.2,1042.3,351,1035.2,351z M1042.3,333.3
		c3.3,0,6.5-0.6,9.5-1.7c3-1.1,5.8-2.6,8.4-4.6c2.6-1.9,4.8-4.1,6.6-6.5c1.8-2.4,3.2-5.1,4-7.8v-27.2c-1.3-3.3-3-6.3-5.2-9
		c-2.1-2.7-4.5-5.1-7.2-7c-2.7-2-5.6-3.5-8.6-4.7c-3-1.1-6.1-1.7-9.1-1.7c-4.8,0-9,1-12.8,3.1c-3.8,2.1-7,4.8-9.6,8.1
		c-2.6,3.4-4.7,7.2-6.1,11.4c-1.5,4.2-2.2,8.6-2.2,13.1c0,4.8,0.8,9.2,2.5,13.4c1.7,4.2,3.9,7.8,6.8,10.9c2.9,3.1,6.3,5.6,10.2,7.4
		C1033.4,332.4,1037.7,333.3,1042.3,333.3z"/>
	<path class="st1" d="M1165.8,351.9c-8.1,0-15.4-1.4-22-4.3c-6.6-2.8-12.3-6.7-16.9-11.6c-4.7-4.9-8.3-10.6-10.9-17
		c-2.6-6.5-3.9-13.3-3.9-20.6c0-7.3,1.3-14.2,3.9-20.7c2.6-6.5,6.2-12.3,10.9-17.2c4.7-5,10.3-8.9,16.9-11.7
		c6.6-2.8,14-4.3,22.2-4.3c8.1,0,15.4,1.5,21.9,4.4c6.5,2.9,12.1,6.8,16.7,11.6c4.6,4.8,8.2,10.4,10.6,16.8
		c2.4,6.4,3.7,13.1,3.7,20.1c0,1.6-0.1,3.1-0.2,4.5c-0.1,1.4-0.3,2.5-0.4,3.5h-83c0.4,4.6,1.5,8.8,3.3,12.5c1.8,3.7,4.1,6.9,6.9,9.6
		c2.8,2.7,6.1,4.8,9.7,6.2c3.6,1.5,7.4,2.2,11.4,2.2c2.9,0,5.8-0.4,8.6-1.1c2.8-0.7,5.5-1.8,7.8-3.2c2.4-1.4,4.5-3.1,6.3-5.1
		c1.8-2,3.3-4.2,4.4-6.5l18.6,5.4c-3.6,7.8-9.5,14.2-17.7,19.1C1186.4,349.5,1176.8,351.9,1165.8,351.9z M1197.3,290.3
		c-0.4-4.4-1.5-8.4-3.3-12.1c-1.8-3.7-4.1-6.8-6.8-9.4c-2.8-2.6-6-4.6-9.7-6c-3.7-1.5-7.6-2.2-11.7-2.2c-4.1,0-8,0.7-11.6,2.2
		c-3.6,1.5-6.8,3.5-9.6,6c-2.8,2.6-5,5.7-6.7,9.4c-1.7,3.7-2.8,7.7-3.2,12.1H1197.3z"/>
	<path class="st1" d="M1295,265.1c-8.5,0.3-16,2.2-22.5,5.8c-6.5,3.6-11.2,8.8-14,15.6V350h-21.8V246.3h20.2v23.2
		c3.6-7.1,8.2-12.8,14-17.1c5.7-4.3,11.9-6.6,18.5-7c1.3,0,2.4,0,3.3,0c0.9,0,1.6,0.1,2.3,0.2V265.1z"/>
</g>
</svg>
