<?xml version="1.0" encoding="utf-8"?>
<!-- Generator: Adobe Illustrator 23.0.2, SVG Export Plug-In . SVG Version: 6.00 Build 0)  -->
<svg version="1.1" id="Layer_1" xmlns="http://www.w3.org/2000/svg" xmlns:xlink="http://www.w3.org/1999/xlink" x="0px" y="0px"
	 viewBox="0 0 43.6 101.2" style="enable-background:new 0 0 43.6 101.2;" xml:space="preserve">
<style type="text/css">
	.st0{fill:#ECE71F;}
	.st1{fill:#F6F4F4;}
	.st2{fill:#F8981D;}
	.st3{fill:#ED2024;}
	.st4{fill:#C7DA2C;}
	.st5{fill:#47A447;}
</style>
<circle class="st0" cx="6.2" cy="49.5" r="6.2"/>
<g>
	<path class="st1" d="M20.6,98h-1.1v-7.2l-2.2,0.8v-1l3.1-1.2h0.2V98z"/>
	<path class="st1" d="M23.7,91.1c0-0.5,0.2-0.9,0.5-1.3s0.7-0.5,1.3-0.5c0.5,0,0.9,0.2,1.3,0.5s0.5,0.8,0.5,1.3v0.4
		c0,0.5-0.2,0.9-0.5,1.3s-0.7,0.5-1.2,0.5c-0.5,0-0.9-0.2-1.3-0.5s-0.5-0.8-0.5-1.3V91.1z M24.5,91.5c0,0.3,0.1,0.6,0.3,0.8
		c0.2,0.2,0.4,0.3,0.7,0.3c0.3,0,0.5-0.1,0.7-0.3c0.2-0.2,0.3-0.5,0.3-0.8v-0.4c0-0.3-0.1-0.6-0.3-0.8C26,90.1,25.7,90,25.4,90
		s-0.5,0.1-0.7,0.3c-0.2,0.2-0.3,0.5-0.3,0.8V91.5z M25.7,97.3l-0.6-0.4l4.2-6.7l0.6,0.4L25.7,97.3z M27.8,95.9
		c0-0.5,0.2-0.9,0.5-1.3s0.7-0.5,1.3-0.5s0.9,0.2,1.3,0.5s0.5,0.8,0.5,1.3v0.4c0,0.5-0.2,0.9-0.5,1.3s-0.7,0.5-1.3,0.5
		s-0.9-0.2-1.3-0.5s-0.5-0.8-0.5-1.3V95.9z M28.6,96.3c0,0.3,0.1,0.6,0.3,0.8c0.2,0.2,0.4,0.3,0.7,0.3c0.3,0,0.5-0.1,0.7-0.3
		c0.2-0.2,0.3-0.5,0.3-0.8v-0.4c0-0.3-0.1-0.6-0.3-0.8c-0.2-0.2-0.4-0.3-0.7-0.3c-0.3,0-0.5,0.1-0.7,0.3c-0.2,0.2-0.3,0.5-0.3,0.8
		V96.3z"/>
</g>
<g>
	<path class="st1" d="M18.9,10.3h-1.1V3.1l-2.2,0.8v-1l3.1-1.2h0.2V10.3z"/>
	<path class="st1" d="M27.4,6.6c0,1.3-0.2,2.2-0.7,2.8s-1.1,0.9-2,0.9c-0.9,0-1.6-0.3-2-0.9S22.1,8,22.1,6.8V5.3
		c0-1.3,0.2-2.2,0.7-2.8c0.4-0.6,1.1-0.9,2-0.9c0.9,0,1.6,0.3,2,0.9c0.4,0.6,0.7,1.5,0.7,2.7V6.6z M26.4,5.2c0-0.9-0.1-1.6-0.4-2
		s-0.7-0.6-1.2-0.6c-0.6,0-1,0.2-1.2,0.6s-0.4,1.1-0.4,1.9v1.7c0,0.9,0.1,1.6,0.4,2s0.7,0.7,1.2,0.7c0.5,0,0.9-0.2,1.2-0.6
		s0.4-1.1,0.4-2V5.2z"/>
	<path class="st1" d="M34.2,6.6c0,1.3-0.2,2.2-0.7,2.8s-1.1,0.9-2,0.9c-0.9,0-1.6-0.3-2-0.9S28.8,8,28.8,6.8V5.3
		c0-1.3,0.2-2.2,0.7-2.8c0.4-0.6,1.1-0.9,2-0.9c0.9,0,1.6,0.3,2,0.9c0.4,0.6,0.7,1.5,0.7,2.7V6.6z M33.1,5.2c0-0.9-0.1-1.6-0.4-2
		S32,2.5,31.5,2.5c-0.6,0-1,0.2-1.2,0.6s-0.4,1.1-0.4,1.9v1.7c0,0.9,0.1,1.6,0.4,2s0.7,0.7,1.2,0.7c0.5,0,0.9-0.2,1.2-0.6
		s0.4-1.1,0.4-2V5.2z"/>
	<path class="st1" d="M35.5,3.4c0-0.5,0.2-0.9,0.5-1.3c0.3-0.3,0.7-0.5,1.3-0.5c0.5,0,0.9,0.2,1.3,0.5C38.8,2.5,39,2.9,39,3.4v0.4
		c0,0.5-0.2,0.9-0.5,1.3s-0.7,0.5-1.2,0.5c-0.5,0-0.9-0.2-1.3-0.5s-0.5-0.8-0.5-1.3V3.4z M36.3,3.8c0,0.3,0.1,0.6,0.3,0.8
		c0.2,0.2,0.4,0.3,0.7,0.3c0.3,0,0.5-0.1,0.7-0.3c0.2-0.2,0.3-0.5,0.3-0.8V3.4c0-0.3-0.1-0.6-0.3-0.8c-0.2-0.2-0.4-0.3-0.7-0.3
		s-0.5,0.1-0.7,0.3c-0.2,0.2-0.3,0.5-0.3,0.8V3.8z M37.5,9.6l-0.6-0.4L41,2.6L41.6,3L37.5,9.6z M39.6,8.2c0-0.5,0.2-0.9,0.5-1.3
		s0.7-0.5,1.3-0.5s0.9,0.2,1.3,0.5s0.5,0.8,0.5,1.3v0.4c0,0.5-0.2,0.9-0.5,1.3s-0.7,0.5-1.3,0.5s-0.9-0.2-1.3-0.5s-0.5-0.8-0.5-1.3
		V8.2z M40.4,8.6c0,0.3,0.1,0.6,0.3,0.8c0.2,0.2,0.4,0.3,0.7,0.3c0.3,0,0.5-0.1,0.7-0.3c0.2-0.2,0.3-0.5,0.3-0.8V8.2
		c0-0.3-0.1-0.6-0.3-0.8c-0.2-0.2-0.4-0.3-0.7-0.3c-0.3,0-0.5,0.1-0.7,0.3c-0.2,0.2-0.3,0.5-0.3,0.8V8.6z"/>
</g>
<circle class="st2" cx="6.2" cy="27.9" r="6.2"/>
<circle class="st3" cx="6.2" cy="6.2" r="6.2"/>
<circle class="st4" cx="6.2" cy="71.1" r="6.2"/>
<circle class="st5" cx="6.2" cy="92.8" r="6.2"/>
<g>
	<path class="st1" d="M17.5,50.2L18,46h4.4v1h-3.5l-0.3,2.3c0.4-0.2,0.9-0.4,1.4-0.4c0.8,0,1.4,0.3,1.9,0.8s0.7,1.2,0.7,2.1
		c0,0.9-0.2,1.6-0.7,2.1s-1.1,0.8-2,0.8c-0.8,0-1.4-0.2-1.8-0.6s-0.7-1-0.8-1.7h1c0.1,0.5,0.2,0.9,0.5,1.1s0.7,0.4,1.1,0.4
		c0.5,0,0.9-0.2,1.2-0.5s0.4-0.8,0.4-1.4c0-0.6-0.2-1-0.5-1.4s-0.7-0.5-1.2-0.5c-0.5,0-0.8,0.1-1.1,0.3l-0.3,0.2L17.5,50.2z"/>
	<path class="st1" d="M29.1,50.9c0,1.3-0.2,2.2-0.7,2.8s-1.1,0.9-2,0.9c-0.9,0-1.6-0.3-2-0.9s-0.7-1.5-0.7-2.7v-1.4
		c0-1.3,0.2-2.2,0.7-2.8s1.1-0.9,2-0.9c0.9,0,1.6,0.3,2,0.9s0.7,1.5,0.7,2.7V50.9z M28,49.4c0-0.9-0.1-1.6-0.4-2s-0.7-0.6-1.2-0.6
		c-0.6,0-1,0.2-1.2,0.6s-0.4,1.1-0.4,1.9V51c0,0.9,0.1,1.6,0.4,2s0.7,0.7,1.2,0.7c0.5,0,0.9-0.2,1.2-0.6s0.4-1.1,0.4-2V49.4z"/>
	<path class="st1" d="M30.4,47.6c0-0.5,0.2-0.9,0.5-1.3s0.7-0.5,1.3-0.5c0.5,0,0.9,0.2,1.3,0.5s0.5,0.8,0.5,1.3v0.4
		c0,0.5-0.2,0.9-0.5,1.3s-0.7,0.5-1.2,0.5c-0.5,0-0.9-0.2-1.3-0.5s-0.5-0.8-0.5-1.3V47.6z M31.2,48.1c0,0.3,0.1,0.6,0.3,0.8
		c0.2,0.2,0.4,0.3,0.7,0.3c0.3,0,0.5-0.1,0.7-0.3c0.2-0.2,0.3-0.5,0.3-0.8v-0.4c0-0.3-0.1-0.6-0.3-0.8c-0.2-0.2-0.4-0.3-0.7-0.3
		s-0.5,0.1-0.7,0.3c-0.2,0.2-0.3,0.5-0.3,0.8V48.1z M32.4,53.9l-0.6-0.4l4.2-6.7l0.6,0.4L32.4,53.9z M34.6,52.4
		c0-0.5,0.2-0.9,0.5-1.3s0.7-0.5,1.3-0.5s0.9,0.2,1.3,0.5s0.5,0.8,0.5,1.3v0.4c0,0.5-0.2,0.9-0.5,1.3s-0.7,0.5-1.3,0.5
		s-0.9-0.2-1.3-0.5s-0.5-0.8-0.5-1.3V52.4z M35.4,52.9c0,0.3,0.1,0.6,0.3,0.8c0.2,0.2,0.4,0.3,0.7,0.3c0.3,0,0.5-0.1,0.7-0.3
		c0.2-0.2,0.3-0.5,0.3-0.8v-0.4c0-0.3-0.1-0.6-0.3-0.8c-0.2-0.2-0.4-0.3-0.7-0.3c-0.3,0-0.5,0.1-0.7,0.3c-0.2,0.2-0.3,0.5-0.3,0.8
		V52.9z"/>
</g>
</svg>
