<?xml version="1.0" encoding="utf-8"?>
<!-- Generator: Adobe Illustrator 23.0.2, SVG Export Plug-In . SVG Version: 6.00 Build 0)  -->
<svg version="1.1" id="Layer_1" xmlns="http://www.w3.org/2000/svg" xmlns:xlink="http://www.w3.org/1999/xlink" x="0px" y="0px"
	 viewBox="0 0 60.5 103" style="enable-background:new 0 0 60.5 103;" xml:space="preserve">
<style type="text/css">
	.st0{fill:#F8981D;}
	.st1{enable-background:new    ;}
	.st2{fill:#F6F4F4;}
</style>
<circle class="st0" cx="9.1" cy="9.1" r="9.1"/>
<circle class="st0" cx="9.1" cy="35.2" r="7.8"/>
<circle class="st0" cx="9.1" cy="58.4" r="6.2"/>
<circle class="st0" cx="9.1" cy="78.1" r="4.4"/>
<circle class="st0" cx="9.1" cy="94.9" r="3.3"/>
<g class="st1">
	<path class="st2" d="M22.1,95.5l0.4-4.3h4.4v1h-3.5l-0.3,2.3c0.4-0.2,0.9-0.4,1.4-0.4c0.8,0,1.4,0.3,1.9,0.8s0.7,1.2,0.7,2.1
		c0,0.9-0.2,1.6-0.7,2.1s-1.1,0.8-2,0.8c-0.8,0-1.4-0.2-1.8-0.6s-0.7-1-0.8-1.7h1c0.1,0.5,0.2,0.9,0.5,1.1S24,99,24.5,99
		c0.5,0,0.9-0.2,1.2-0.5s0.4-0.8,0.4-1.4c0-0.6-0.2-1-0.5-1.4s-0.7-0.5-1.2-0.5c-0.5,0-0.8,0.1-1.1,0.3L23,95.7L22.1,95.5z"/>
	<path class="st2" d="M33.7,96.1c0,1.3-0.2,2.2-0.7,2.8s-1.1,0.9-2,0.9c-0.9,0-1.6-0.3-2-0.9s-0.7-1.5-0.7-2.7v-1.4
		c0-1.3,0.2-2.2,0.7-2.8s1.1-0.9,2-0.9c0.9,0,1.6,0.3,2,0.9s0.7,1.5,0.7,2.7V96.1z M32.6,94.7c0-0.9-0.1-1.6-0.4-2S31.6,92,31,92
		c-0.6,0-1,0.2-1.2,0.6s-0.4,1.1-0.4,1.9v1.7c0,0.9,0.1,1.6,0.4,2S30.5,99,31,99c0.5,0,0.9-0.2,1.2-0.6s0.4-1.1,0.4-2V94.7z"/>
	<path class="st2" d="M40.5,96.1c0,1.3-0.2,2.2-0.7,2.8s-1.1,0.9-2,0.9c-0.9,0-1.6-0.3-2-0.9s-0.7-1.5-0.7-2.7v-1.4
		c0-1.3,0.2-2.2,0.7-2.8s1.1-0.9,2-0.9c0.9,0,1.6,0.3,2,0.9s0.7,1.5,0.7,2.7V96.1z M39.4,94.7c0-0.9-0.1-1.6-0.4-2S38.3,92,37.8,92
		c-0.6,0-1,0.2-1.2,0.6s-0.4,1.1-0.4,1.9v1.7c0,0.9,0.1,1.6,0.4,2s0.7,0.7,1.2,0.7c0.5,0,0.9-0.2,1.2-0.6s0.4-1.1,0.4-2V94.7z"/>
</g>
<g class="st1">
	<path class="st2" d="M25.7,7.8l0.4-4.3h4.4v1H27l-0.3,2.3c0.4-0.2,0.9-0.4,1.4-0.4c0.8,0,1.4,0.3,1.9,0.8s0.7,1.2,0.7,2.1
		c0,0.9-0.2,1.6-0.7,2.1s-1.1,0.8-2,0.8c-0.8,0-1.4-0.2-1.8-0.6s-0.7-1-0.8-1.7h1c0.1,0.5,0.2,0.9,0.5,1.1s0.7,0.4,1.1,0.4
		c0.5,0,0.9-0.2,1.2-0.5s0.4-0.8,0.4-1.4c0-0.6-0.2-1-0.5-1.4s-0.7-0.5-1.2-0.5c-0.5,0-0.8,0.1-1.1,0.3l-0.3,0.2L25.7,7.8z"/>
	<path class="st2" d="M37.2,8.5c0,1.3-0.2,2.2-0.7,2.8s-1.1,0.9-2,0.9c-0.9,0-1.6-0.3-2-0.9s-0.7-1.5-0.7-2.7V7.2
		c0-1.3,0.2-2.2,0.7-2.8s1.1-0.9,2-0.9c0.9,0,1.6,0.3,2,0.9s0.7,1.5,0.7,2.7V8.5z M36.2,7c0-0.9-0.1-1.6-0.4-2s-0.7-0.6-1.2-0.6
		c-0.6,0-1,0.2-1.2,0.6S32.9,6,32.9,6.9v1.7c0,0.9,0.1,1.6,0.4,2s0.7,0.7,1.2,0.7c0.5,0,0.9-0.2,1.2-0.6s0.4-1.1,0.4-2V7z"/>
	<path class="st2" d="M38.7,13.8l-0.6-0.4c0.4-0.5,0.6-1,0.6-1.6v-1h1.1v0.8c0,0.4-0.1,0.8-0.3,1.2S39,13.6,38.7,13.8z"/>
	<path class="st2" d="M46.3,8.5c0,1.3-0.2,2.2-0.7,2.8s-1.1,0.9-2,0.9c-0.9,0-1.6-0.3-2-0.9S41,9.8,41,8.6V7.2
		c0-1.3,0.2-2.2,0.7-2.8s1.1-0.9,2-0.9c0.9,0,1.6,0.3,2,0.9s0.7,1.5,0.7,2.7V8.5z M45.3,7c0-0.9-0.1-1.6-0.4-2s-0.7-0.6-1.2-0.6
		c-0.6,0-1,0.2-1.2,0.6S42,6,42,6.9v1.7c0,0.9,0.1,1.6,0.4,2s0.7,0.7,1.2,0.7c0.5,0,0.9-0.2,1.2-0.6s0.4-1.1,0.4-2V7z"/>
	<path class="st2" d="M53.1,8.5c0,1.3-0.2,2.2-0.7,2.8s-1.1,0.9-2,0.9c-0.9,0-1.6-0.3-2-0.9s-0.7-1.5-0.7-2.7V7.2
		c0-1.3,0.2-2.2,0.7-2.8s1.1-0.9,2-0.9c0.9,0,1.6,0.3,2,0.9s0.7,1.5,0.7,2.7V8.5z M52,7c0-0.9-0.1-1.6-0.4-2s-0.7-0.6-1.2-0.6
		c-0.6,0-1,0.2-1.2,0.6S48.8,6,48.8,6.9v1.7c0,0.9,0.1,1.6,0.4,2s0.7,0.7,1.2,0.7c0.5,0,0.9-0.2,1.2-0.6s0.4-1.1,0.4-2V7z"/>
	<path class="st2" d="M59.8,8.5c0,1.3-0.2,2.2-0.7,2.8s-1.1,0.9-2,0.9c-0.9,0-1.6-0.3-2-0.9s-0.7-1.5-0.7-2.7V7.2
		c0-1.3,0.2-2.2,0.7-2.8s1.1-0.9,2-0.9c0.9,0,1.6,0.3,2,0.9s0.7,1.5,0.7,2.7V8.5z M58.7,7c0-0.9-0.1-1.6-0.4-2s-0.7-0.6-1.2-0.6
		c-0.6,0-1,0.2-1.2,0.6S55.5,6,55.5,6.9v1.7c0,0.9,0.1,1.6,0.4,2s0.7,0.7,1.2,0.7c0.5,0,0.9-0.2,1.2-0.6s0.4-1.1,0.4-2V7z"/>
</g>
</svg>
